<?xml version="1.0" encoding="UTF-8" standalone="no"?>
<!DOCTYPE svg PUBLIC "-//W3C//DTD SVG 1.1//EN"
 "http://www.w3.org/Graphics/SVG/1.1/DTD/svg11.dtd">
<!-- Generated by graphviz version 9.0.0 (20230911.1827)
 -->
<!-- Title: dependency&#45;cruiser output Pages: 1 -->
<svg width="972pt" height="407pt"
 viewBox="0.00 0.00 972.25 406.72" xmlns="http://www.w3.org/2000/svg" xmlns:xlink="http://www.w3.org/1999/xlink">
<g id="graph0" class="graph" transform="scale(1 1) rotate(0) translate(4 402.72)">
<title>dependency&#45;cruiser output</title>
<polygon fill="white" stroke="none" points="-4,4 -4,-402.72 968.25,-402.72 968.25,4 -4,4"/>
<g id="clust1" class="cluster">
<title>cluster_node_modules</title>
<path fill="#ffffff" stroke="black" stroke-width="2" d="M882.25,-77.72C882.25,-77.72 944.25,-77.72 944.25,-77.72 950.25,-77.72 956.25,-83.72 956.25,-89.72 956.25,-89.72 956.25,-181.72 956.25,-181.72 956.25,-187.72 950.25,-193.72 944.25,-193.72 944.25,-193.72 882.25,-193.72 882.25,-193.72 876.25,-193.72 870.25,-187.72 870.25,-181.72 870.25,-181.72 870.25,-89.72 870.25,-89.72 870.25,-83.72 876.25,-77.72 882.25,-77.72"/>
<text text-anchor="middle" x="913.25" y="-181.17" font-family="Helvetica,sans-Serif" font-weight="bold" font-size="9.00">node_modules</text>
</g>
<g id="clust2" class="cluster">
<title>cluster_node_modules/@nestjs</title>
<path fill="#ffffff" stroke="black" stroke-width="2" d="M890.25,-85.72C890.25,-85.72 936.25,-85.72 936.25,-85.72 942.25,-85.72 948.25,-91.72 948.25,-97.72 948.25,-97.72 948.25,-155.72 948.25,-155.72 948.25,-161.72 942.25,-167.72 936.25,-167.72 936.25,-167.72 890.25,-167.72 890.25,-167.72 884.25,-167.72 878.25,-161.72 878.25,-155.72 878.25,-155.72 878.25,-97.72 878.25,-97.72 878.25,-91.72 884.25,-85.72 890.25,-85.72"/>
<text text-anchor="middle" x="913.25" y="-155.17" font-family="Helvetica,sans-Serif" font-weight="bold" font-size="9.00">@nestjs</text>
</g>
<g id="clust3" class="cluster">
<title>cluster_src</title>
<path fill="#ffffff" stroke="black" stroke-width="2" d="M20,-124.72C20,-124.72 850.25,-124.72 850.25,-124.72 856.25,-124.72 862.25,-130.72 862.25,-136.72 862.25,-136.72 862.25,-378.72 862.25,-378.72 862.25,-384.72 856.25,-390.72 850.25,-390.72 850.25,-390.72 20,-390.72 20,-390.72 14,-390.72 8,-384.72 8,-378.72 8,-378.72 8,-136.72 8,-136.72 8,-130.72 14,-124.72 20,-124.72"/>
<text text-anchor="middle" x="435.12" y="-378.17" font-family="Helvetica,sans-Serif" font-weight="bold" font-size="9.00">src</text>
</g>
<g id="clust4" class="cluster">
<title>cluster_src/satellites</title>
<path fill="#ffffff" stroke="black" stroke-width="2" d="M176.75,-132.72C176.75,-132.72 842.25,-132.72 842.25,-132.72 848.25,-132.72 854.25,-138.72 854.25,-144.72 854.25,-144.72 854.25,-352.72 854.25,-352.72 854.25,-358.72 848.25,-364.72 842.25,-364.72 842.25,-364.72 176.75,-364.72 176.75,-364.72 170.75,-364.72 164.75,-358.72 164.75,-352.72 164.75,-352.72 164.75,-144.72 164.75,-144.72 164.75,-138.72 170.75,-132.72 176.75,-132.72"/>
<text text-anchor="middle" x="509.5" y="-352.17" font-family="Helvetica,sans-Serif" font-weight="bold" font-size="9.00">satellites</text>
</g>
<g id="clust5" class="cluster">
<title>cluster_src/satellites/satellite</title>
<path fill="#ffffff" stroke="black" stroke-width="2" d="M289.75,-166.72C289.75,-166.72 834.25,-166.72 834.25,-166.72 840.25,-166.72 846.25,-172.72 846.25,-178.72 846.25,-178.72 846.25,-326.72 846.25,-326.72 846.25,-332.72 840.25,-338.72 834.25,-338.72 834.25,-338.72 289.75,-338.72 289.75,-338.72 283.75,-338.72 277.75,-332.72 277.75,-326.72 277.75,-326.72 277.75,-178.72 277.75,-178.72 277.75,-172.72 283.75,-166.72 289.75,-166.72"/>
<text text-anchor="middle" x="562" y="-326.17" font-family="Helvetica,sans-Serif" font-weight="bold" font-size="9.00">satellite</text>
</g>
<g id="clust6" class="cluster">
<title>cluster_src/satellites/satellite/id</title>
<path fill="#ffffff" stroke="black" stroke-width="2" d="M401.25,-200.72C401.25,-200.72 826.25,-200.72 826.25,-200.72 832.25,-200.72 838.25,-206.72 838.25,-212.72 838.25,-212.72 838.25,-300.72 838.25,-300.72 838.25,-306.72 832.25,-312.72 826.25,-312.72 826.25,-312.72 401.25,-312.72 401.25,-312.72 395.25,-312.72 389.25,-306.72 389.25,-300.72 389.25,-300.72 389.25,-212.72 389.25,-212.72 389.25,-206.72 395.25,-200.72 401.25,-200.72"/>
<text text-anchor="middle" x="613.75" y="-300.17" font-family="Helvetica,sans-Serif" font-weight="bold" font-size="9.00">id</text>
</g>
<g id="clust7" class="cluster">
<title>cluster_src/satellites/satellite/id/details</title>
<path fill="#ffffff" stroke="black" stroke-width="2" d="M536.75,-234.72C536.75,-234.72 818.25,-234.72 818.25,-234.72 824.25,-234.72 830.25,-240.72 830.25,-246.72 830.25,-246.72 830.25,-274.72 830.25,-274.72 830.25,-280.72 824.25,-286.72 818.25,-286.72 818.25,-286.72 536.75,-286.72 536.75,-286.72 530.75,-286.72 524.75,-280.72 524.75,-274.72 524.75,-274.72 524.75,-246.72 524.75,-246.72 524.75,-240.72 530.75,-234.72 536.75,-234.72"/>
<text text-anchor="middle" x="677.5" y="-274.17" font-family="Helvetica,sans-Serif" font-weight="bold" font-size="9.00">details</text>
</g>
<!-- node_modules/@nestjs/common -->
<g id="node1" class="node">
<title>node_modules/@nestjs/common</title>
<g id="a_node1"><a xlink:href="https://www.npmjs.com/package/@nestjs/common" xlink:title="common">
<polygon fill="#c40b0a" fill-opacity="0.101961" stroke="black" points="940.25,-141.6 888.22,-141.6 886.25,-139.63 886.25,-123.85 938.28,-123.85 940.25,-125.82 940.25,-141.6"/>
<polyline fill="none" stroke="black" points="938.28,-139.63 886.25,-139.63"/>
<polyline fill="none" stroke="black" points="938.28,-139.63 938.28,-123.85"/>
<polyline fill="none" stroke="black" points="938.28,-139.63 940.25,-141.6"/>
<text text-anchor="start" x="895.62" y="-129.05" font-family="Helvetica,sans-Serif" font-size="9.00" fill="#c40b0a">common</text>
</a>
</g>
</g>
<!-- node_modules/@nestjs/core -->
<g id="node2" class="node">
<title>node_modules/@nestjs/core</title>
<g id="a_node2"><a xlink:href="https://www.npmjs.com/package/@nestjs/core" xlink:title="core">
<polygon fill="#c40b0a" fill-opacity="0.101961" stroke="black" points="940.25,-111.6 888.22,-111.6 886.25,-109.63 886.25,-93.85 938.28,-93.85 940.25,-95.82 940.25,-111.6"/>
<polyline fill="none" stroke="black" points="938.28,-109.63 886.25,-109.63"/>
<polyline fill="none" stroke="black" points="938.28,-109.63 938.28,-93.85"/>
<polyline fill="none" stroke="black" points="938.28,-109.63 940.25,-111.6"/>
<text text-anchor="start" x="904.25" y="-99.05" font-family="Helvetica,sans-Serif" font-size="9.00" fill="#c40b0a">core</text>
</a>
</g>
</g>
<!-- src/app.module.js -->
<g id="node3" class="node">
<title>src/app.module.js</title>
<g id="a_node3"><a xlink:href="src/app.module.js" xlink:title="app.module.js">
<path fill="#ffffcc" stroke="black" d="M150.83,-150.6C150.83,-150.6 88.92,-150.6 88.92,-150.6 85.96,-150.6 83,-147.64 83,-144.68 83,-144.68 83,-138.77 83,-138.77 83,-135.81 85.96,-132.85 88.92,-132.85 88.92,-132.85 150.83,-132.85 150.83,-132.85 153.79,-132.85 156.75,-135.81 156.75,-138.77 156.75,-138.77 156.75,-144.68 156.75,-144.68 156.75,-147.64 153.79,-150.6 150.83,-150.6"/>
<text text-anchor="start" x="91" y="-138.05" font-family="Helvetica,sans-Serif" font-size="9.00">app.module.js</text>
</a>
</g>
</g>
<!-- src/app.module.js&#45;&gt;node_modules/@nestjs/common -->
<g id="edge2" class="edge">
<title>src/app.module.js&#45;&gt;node_modules/@nestjs/common</title>
<path fill="none" stroke="#000000" stroke-opacity="0.200000" d="M131.32,-132.49C160.45,-107.74 245.96,-41.72 329.5,-41.72 329.5,-41.72 329.5,-41.72 601,-41.72 659.14,-41.72 819.63,-16.18 862.25,-55.72 882.62,-74.62 852.82,-96.09 870.25,-117.72 872.68,-120.74 875.76,-123.14 879.14,-125.07"/>
<polygon fill="#000000" fill-opacity="0.200000" stroke="#000000" stroke-opacity="0.200000" points="878.23,-126.96 884.56,-127.57 880,-123.15 878.23,-126.96"/>
</g>
<!-- src/satellites/satellites.module.js -->
<g id="node4" class="node">
<title>src/satellites/satellites.module.js</title>
<g id="a_node4"><a xlink:href="src/satellites/satellites.module.js" xlink:title="satellites.module.js">
<path fill="#ffffcc" stroke="black" d="M260.83,-158.6C260.83,-158.6 178.67,-158.6 178.67,-158.6 175.71,-158.6 172.75,-155.64 172.75,-152.68 172.75,-152.68 172.75,-146.77 172.75,-146.77 172.75,-143.81 175.71,-140.85 178.67,-140.85 178.67,-140.85 260.83,-140.85 260.83,-140.85 263.79,-140.85 266.75,-143.81 266.75,-146.77 266.75,-146.77 266.75,-152.68 266.75,-152.68 266.75,-155.64 263.79,-158.6 260.83,-158.6"/>
<text text-anchor="start" x="180.75" y="-146.05" font-family="Helvetica,sans-Serif" font-size="9.00">satellites.module.js</text>
</a>
</g>
</g>
<!-- src/app.module.js&#45;&gt;src/satellites/satellites.module.js -->
<g id="edge1" class="edge">
<title>src/app.module.js&#45;&gt;src/satellites/satellites.module.js</title>
<path fill="none" stroke="#000000" stroke-width="2" stroke-opacity="0.200000" d="M157.04,-144.68C159.23,-144.86 161.46,-145.04 163.71,-145.22"/>
<polygon fill="#000000" fill-opacity="0.200000" stroke="#000000" stroke-width="2" stroke-opacity="0.200000" points="163.25,-147.29 169.4,-145.69 163.59,-143.11 163.25,-147.29"/>
</g>
<!-- src/satellites/satellites.module.js&#45;&gt;node_modules/@nestjs/common -->
<g id="edge19" class="edge">
<title>src/satellites/satellites.module.js&#45;&gt;node_modules/@nestjs/common</title>
<path fill="none" stroke="#000000" stroke-opacity="0.200000" d="M235.8,-140.48C272.19,-119.03 368.41,-67.72 456,-67.72 456,-67.72 456,-67.72 601,-67.72 659.12,-67.72 817.97,-42.08 862.25,-79.72 875.4,-90.9 858.9,-104.72 870.25,-117.72 872.73,-120.57 875.79,-122.87 879.12,-124.74"/>
<polygon fill="#000000" fill-opacity="0.200000" stroke="#000000" stroke-opacity="0.200000" points="878.07,-126.57 884.39,-127.18 879.83,-122.76 878.07,-126.57"/>
</g>
<!-- src/satellites/satellite/satellite.module.js -->
<g id="node11" class="node">
<title>src/satellites/satellite/satellite.module.js</title>
<g id="a_node11"><a xlink:href="src/satellites/satellite/satellite.module.js" xlink:title="satellite.module.js">
<path fill="#ffffcc" stroke="black" d="M369.33,-192.6C369.33,-192.6 291.67,-192.6 291.67,-192.6 288.71,-192.6 285.75,-189.64 285.75,-186.68 285.75,-186.68 285.75,-180.77 285.75,-180.77 285.75,-177.81 288.71,-174.85 291.67,-174.85 291.67,-174.85 369.33,-174.85 369.33,-174.85 372.29,-174.85 375.25,-177.81 375.25,-180.77 375.25,-180.77 375.25,-186.68 375.25,-186.68 375.25,-189.64 372.29,-192.6 369.33,-192.6"/>
<text text-anchor="start" x="293.75" y="-180.05" font-family="Helvetica,sans-Serif" font-size="9.00">satellite.module.js</text>
</a>
</g>
</g>
<!-- src/satellites/satellites.module.js&#45;&gt;src/satellites/satellite/satellite.module.js -->
<g id="edge17" class="edge">
<title>src/satellites/satellites.module.js&#45;&gt;src/satellites/satellite/satellite.module.js</title>
<path fill="none" stroke="#000000" stroke-width="2" stroke-opacity="0.200000" d="M244.41,-159.08C254.58,-162.94 266.67,-167.3 277.75,-170.72 279.15,-171.16 280.57,-171.58 282.01,-172.01"/>
<polygon fill="#000000" fill-opacity="0.200000" stroke="#000000" stroke-width="2" stroke-opacity="0.200000" points="281.12,-173.94 287.47,-173.55 282.26,-169.9 281.12,-173.94"/>
</g>
<!-- src/satellites/satellites.controller.js -->
<g id="node12" class="node">
<title>src/satellites/satellites.controller.js</title>
<g id="a_node12"><a xlink:href="src/satellites/satellites.controller.js" xlink:title="satellites.controller.js">
<path fill="#ffffcc" stroke="black" d="M375.33,-158.6C375.33,-158.6 285.67,-158.6 285.67,-158.6 282.71,-158.6 279.75,-155.64 279.75,-152.68 279.75,-152.68 279.75,-146.77 279.75,-146.77 279.75,-143.81 282.71,-140.85 285.67,-140.85 285.67,-140.85 375.33,-140.85 375.33,-140.85 378.29,-140.85 381.25,-143.81 381.25,-146.77 381.25,-146.77 381.25,-152.68 381.25,-152.68 381.25,-155.64 378.29,-158.6 375.33,-158.6"/>
<text text-anchor="start" x="287.75" y="-146.05" font-family="Helvetica,sans-Serif" font-size="9.00">satellites.controller.js</text>
</a>
</g>
</g>
<!-- src/satellites/satellites.module.js&#45;&gt;src/satellites/satellites.controller.js -->
<g id="edge18" class="edge">
<title>src/satellites/satellites.module.js&#45;&gt;src/satellites/satellites.controller.js</title>
<path fill="none" stroke="#000000" stroke-width="2" stroke-opacity="0.200000" d="M267.19,-149.72C268.32,-149.72 269.46,-149.72 270.61,-149.72"/>
<polygon fill="#000000" fill-opacity="0.200000" stroke="#000000" stroke-width="2" stroke-opacity="0.200000" points="270.37,-151.82 276.37,-149.72 270.37,-147.62 270.37,-151.82"/>
</g>
<!-- src/main.js -->
<g id="node5" class="node">
<title>src/main.js</title>
<g id="a_node5"><a xlink:href="src/main.js" xlink:title="main.js">
<path fill="#ffffcc" stroke="black" d="M64.08,-150.6C64.08,-150.6 21.92,-150.6 21.92,-150.6 18.96,-150.6 16,-147.64 16,-144.68 16,-144.68 16,-138.77 16,-138.77 16,-135.81 18.96,-132.85 21.92,-132.85 21.92,-132.85 64.08,-132.85 64.08,-132.85 67.04,-132.85 70,-135.81 70,-138.77 70,-138.77 70,-144.68 70,-144.68 70,-147.64 67.04,-150.6 64.08,-150.6"/>
<text text-anchor="start" x="28.38" y="-138.05" font-family="Helvetica,sans-Serif" font-size="9.00">main.js</text>
</a>
</g>
</g>
<!-- src/main.js&#45;&gt;node_modules/@nestjs/core -->
<g id="edge4" class="edge">
<title>src/main.js&#45;&gt;node_modules/@nestjs/core</title>
<path fill="none" stroke="#000000" stroke-opacity="0.200000" d="M50.1,-132.66C70.37,-103.77 138.71,-15.72 218.75,-15.72 218.75,-15.72 218.75,-15.72 601,-15.72 717.28,-15.72 760.88,27.23 862.25,-29.72 884.51,-42.23 898.95,-69.28 906.33,-86.71"/>
<polygon fill="#000000" fill-opacity="0.200000" stroke="#000000" stroke-opacity="0.200000" points="904.32,-87.33 908.5,-92.12 908.22,-85.76 904.32,-87.33"/>
</g>
<!-- src/main.js&#45;&gt;src/app.module.js -->
<g id="edge3" class="edge">
<title>src/main.js&#45;&gt;src/app.module.js</title>
<path fill="none" stroke="#000000" stroke-width="2" stroke-opacity="0.200000" d="M70.19,-141.72C71.45,-141.72 72.74,-141.72 74.03,-141.72"/>
<polygon fill="#000000" fill-opacity="0.200000" stroke="#000000" stroke-width="2" stroke-opacity="0.200000" points="73.67,-143.82 79.67,-141.72 73.67,-139.62 73.67,-143.82"/>
</g>
<!-- src/satellites/satellite/id/details/satellite&#45;details&#45;full.controller.js -->
<g id="node6" class="node">
<title>src/satellites/satellite/id/details/satellite&#45;details&#45;full.controller.js</title>
<g id="a_node6"><a xlink:href="src/satellites/satellite/id/details/satellite-details-full.controller.js" xlink:title="satellite&#45;details&#45;full.controller.js">
<path fill="#ffffcc" stroke="black" d="M816.33,-260.6C816.33,-260.6 686.17,-260.6 686.17,-260.6 683.21,-260.6 680.25,-257.64 680.25,-254.68 680.25,-254.68 680.25,-248.77 680.25,-248.77 680.25,-245.81 683.21,-242.85 686.17,-242.85 686.17,-242.85 816.33,-242.85 816.33,-242.85 819.29,-242.85 822.25,-245.81 822.25,-248.77 822.25,-248.77 822.25,-254.68 822.25,-254.68 822.25,-257.64 819.29,-260.6 816.33,-260.6"/>
<text text-anchor="start" x="688.25" y="-248.05" font-family="Helvetica,sans-Serif" font-size="9.00">satellite&#45;details&#45;full.controller.js</text>
</a>
</g>
</g>
<!-- src/satellites/satellite/id/details/satellite&#45;details&#45;full.controller.js&#45;&gt;node_modules/@nestjs/common -->
<g id="edge5" class="edge">
<title>src/satellites/satellite/id/details/satellite&#45;details&#45;full.controller.js&#45;&gt;node_modules/@nestjs/common</title>
<path fill="none" stroke="#000000" stroke-opacity="0.200000" d="M822.53,-250.27C836.69,-247.33 850.74,-242.24 862.25,-233.72 890.26,-213.02 903.49,-172.27 908.95,-149.37"/>
<polygon fill="#000000" fill-opacity="0.200000" stroke="#000000" stroke-opacity="0.200000" points="910.99,-149.86 910.25,-143.55 906.89,-148.95 910.99,-149.86"/>
</g>
<!-- src/satellites/satellite/id/details/satellite&#45;details&#45;full.module.js -->
<g id="node7" class="node">
<title>src/satellites/satellite/id/details/satellite&#45;details&#45;full.module.js</title>
<g id="a_node7"><a xlink:href="src/satellites/satellite/id/details/satellite-details-full.module.js" xlink:title="satellite&#45;details&#45;full.module.js">
<path fill="#ffffcc" stroke="black" d="M661.33,-260.6C661.33,-260.6 538.67,-260.6 538.67,-260.6 535.71,-260.6 532.75,-257.64 532.75,-254.68 532.75,-254.68 532.75,-248.77 532.75,-248.77 532.75,-245.81 535.71,-242.85 538.67,-242.85 538.67,-242.85 661.33,-242.85 661.33,-242.85 664.29,-242.85 667.25,-245.81 667.25,-248.77 667.25,-248.77 667.25,-254.68 667.25,-254.68 667.25,-257.64 664.29,-260.6 661.33,-260.6"/>
<text text-anchor="start" x="540.75" y="-248.05" font-family="Helvetica,sans-Serif" font-size="9.00">satellite&#45;details&#45;full.module.js</text>
</a>
</g>
</g>
<!-- src/satellites/satellite/id/details/satellite&#45;details&#45;full.module.js&#45;&gt;node_modules/@nestjs/common -->
<g id="edge7" class="edge">
<title>src/satellites/satellite/id/details/satellite&#45;details&#45;full.module.js&#45;&gt;node_modules/@nestjs/common</title>
<path fill="none" stroke="#000000" stroke-opacity="0.200000" d="M649.16,-242.42C659.42,-240.49 670.18,-238.51 680.25,-236.72 760.98,-222.43 793.23,-250.96 862.25,-206.72 883.84,-192.89 898.4,-166.05 906,-148.78"/>
<polygon fill="#000000" fill-opacity="0.200000" stroke="#000000" stroke-opacity="0.200000" points="907.87,-149.77 908.25,-143.42 903.99,-148.14 907.87,-149.77"/>
</g>
<!-- src/satellites/satellite/id/details/satellite&#45;details&#45;full.module.js&#45;&gt;src/satellites/satellite/id/details/satellite&#45;details&#45;full.controller.js -->
<g id="edge6" class="edge">
<title>src/satellites/satellite/id/details/satellite&#45;details&#45;full.module.js&#45;&gt;src/satellites/satellite/id/details/satellite&#45;details&#45;full.controller.js</title>
<path fill="none" stroke="#000000" stroke-width="2" stroke-opacity="0.200000" d="M667.33,-251.72C668.65,-251.72 669.96,-251.72 671.28,-251.72"/>
<polygon fill="#000000" fill-opacity="0.200000" stroke="#000000" stroke-width="2" stroke-opacity="0.200000" points="670.97,-253.82 676.97,-251.72 670.97,-249.62 670.97,-253.82"/>
</g>
<!-- src/satellites/satellite/id/satellite&#45;details.controller.js -->
<g id="node8" class="node">
<title>src/satellites/satellite/id/satellite&#45;details.controller.js</title>
<g id="a_node8"><a xlink:href="src/satellites/satellite/id/satellite-details.controller.js" xlink:title="satellite&#45;details.controller.js">
<path fill="#ffffcc" stroke="black" d="M657.58,-226.6C657.58,-226.6 542.42,-226.6 542.42,-226.6 539.46,-226.6 536.5,-223.64 536.5,-220.68 536.5,-220.68 536.5,-214.77 536.5,-214.77 536.5,-211.81 539.46,-208.85 542.42,-208.85 542.42,-208.85 657.58,-208.85 657.58,-208.85 660.54,-208.85 663.5,-211.81 663.5,-214.77 663.5,-214.77 663.5,-220.68 663.5,-220.68 663.5,-223.64 660.54,-226.6 657.58,-226.6"/>
<text text-anchor="start" x="544.5" y="-214.05" font-family="Helvetica,sans-Serif" font-size="9.00">satellite&#45;details.controller.js</text>
</a>
</g>
</g>
<!-- src/satellites/satellite/id/satellite&#45;details.controller.js&#45;&gt;node_modules/@nestjs/common -->
<g id="edge8" class="edge">
<title>src/satellites/satellite/id/satellite&#45;details.controller.js&#45;&gt;node_modules/@nestjs/common</title>
<path fill="none" stroke="#000000" stroke-opacity="0.200000" d="M663.71,-213.62C729.61,-208.51 828.34,-198.36 862.25,-181.72 878.27,-173.86 892.36,-158.9 901.46,-147.57"/>
<polygon fill="#000000" fill-opacity="0.200000" stroke="#000000" stroke-opacity="0.200000" points="903.06,-148.95 905.06,-142.92 899.73,-146.38 903.06,-148.95"/>
</g>
<!-- src/satellites/satellite/id/satellite&#45;details.module.js -->
<g id="node9" class="node">
<title>src/satellites/satellite/id/satellite&#45;details.module.js</title>
<g id="a_node9"><a xlink:href="src/satellites/satellite/id/satellite-details.module.js" xlink:title="satellite&#45;details.module.js">
<path fill="#ffffcc" stroke="black" d="M510.83,-226.6C510.83,-226.6 403.17,-226.6 403.17,-226.6 400.21,-226.6 397.25,-223.64 397.25,-220.68 397.25,-220.68 397.25,-214.77 397.25,-214.77 397.25,-211.81 400.21,-208.85 403.17,-208.85 403.17,-208.85 510.83,-208.85 510.83,-208.85 513.79,-208.85 516.75,-211.81 516.75,-214.77 516.75,-214.77 516.75,-220.68 516.75,-220.68 516.75,-223.64 513.79,-226.6 510.83,-226.6"/>
<text text-anchor="start" x="405.25" y="-214.05" font-family="Helvetica,sans-Serif" font-size="9.00">satellite&#45;details.module.js</text>
</a>
</g>
</g>
<!-- src/satellites/satellite/id/satellite&#45;details.module.js&#45;&gt;node_modules/@nestjs/common -->
<g id="edge11" class="edge">
<title>src/satellites/satellite/id/satellite&#45;details.module.js&#45;&gt;node_modules/@nestjs/common</title>
<path fill="none" stroke="#000000" stroke-opacity="0.200000" d="M500.71,-208.42C506.11,-207.2 511.56,-205.95 516.75,-204.72 520.32,-203.88 521.16,-203.47 524.75,-202.72 673.65,-171.59 713.49,-177.56 862.25,-145.72 867.68,-144.56 873.4,-143.2 878.96,-141.81"/>
<polygon fill="#000000" fill-opacity="0.200000" stroke="#000000" stroke-opacity="0.200000" points="879.13,-143.93 884.42,-140.41 878.08,-139.87 879.13,-143.93"/>
</g>
<!-- src/satellites/satellite/id/satellite&#45;details.module.js&#45;&gt;src/satellites/satellite/id/details/satellite&#45;details&#45;full.module.js -->
<g id="edge9" class="edge">
<title>src/satellites/satellite/id/satellite&#45;details.module.js&#45;&gt;src/satellites/satellite/id/details/satellite&#45;details&#45;full.module.js</title>
<path fill="none" stroke="#000000" stroke-width="2" stroke-opacity="0.200000" d="M484.73,-227.02C496.84,-231 511.41,-235.47 524.75,-238.72 527.34,-239.35 529.98,-239.97 532.66,-240.56"/>
<polygon fill="#000000" fill-opacity="0.200000" stroke="#000000" stroke-width="2" stroke-opacity="0.200000" points="532.02,-242.57 538.32,-241.76 532.89,-238.46 532.02,-242.57"/>
</g>
<!-- src/satellites/satellite/id/satellite&#45;details.module.js&#45;&gt;src/satellites/satellite/id/satellite&#45;details.controller.js -->
<g id="edge10" class="edge">
<title>src/satellites/satellite/id/satellite&#45;details.module.js&#45;&gt;src/satellites/satellite/id/satellite&#45;details.controller.js</title>
<path fill="none" stroke="#000000" stroke-width="2" stroke-opacity="0.200000" d="M516.98,-217.72C520.35,-217.72 523.75,-217.72 527.16,-217.72"/>
<polygon fill="#000000" fill-opacity="0.200000" stroke="#000000" stroke-width="2" stroke-opacity="0.200000" points="527.14,-219.82 533.14,-217.72 527.14,-215.62 527.14,-219.82"/>
</g>
<!-- src/satellites/satellite/satellite.controller.js -->
<g id="node10" class="node">
<title>src/satellites/satellite/satellite.controller.js</title>
<g id="a_node10"><a xlink:href="src/satellites/satellite/satellite.controller.js" xlink:title="satellite.controller.js">
<path fill="#ffffcc" stroke="black" d="M499.58,-192.6C499.58,-192.6 414.42,-192.6 414.42,-192.6 411.46,-192.6 408.5,-189.64 408.5,-186.68 408.5,-186.68 408.5,-180.77 408.5,-180.77 408.5,-177.81 411.46,-174.85 414.42,-174.85 414.42,-174.85 499.58,-174.85 499.58,-174.85 502.54,-174.85 505.5,-177.81 505.5,-180.77 505.5,-180.77 505.5,-186.68 505.5,-186.68 505.5,-189.64 502.54,-192.6 499.58,-192.6"/>
<text text-anchor="start" x="416.5" y="-180.05" font-family="Helvetica,sans-Serif" font-size="9.00">satellite.controller.js</text>
</a>
</g>
</g>
<!-- src/satellites/satellite/satellite.controller.js&#45;&gt;node_modules/@nestjs/common -->
<g id="edge12" class="edge">
<title>src/satellites/satellite/satellite.controller.js&#45;&gt;node_modules/@nestjs/common</title>
<path fill="none" stroke="#000000" stroke-opacity="0.200000" d="M481.41,-174.45C494.05,-169.85 510.03,-164.65 524.75,-161.72 653.76,-136.04 811.05,-132.66 878.69,-132.5"/>
<polygon fill="#000000" fill-opacity="0.200000" stroke="#000000" stroke-opacity="0.200000" points="878.59,-134.6 884.59,-132.5 878.59,-130.4 878.59,-134.6"/>
</g>
<!-- src/satellites/satellite/satellite.module.js&#45;&gt;node_modules/@nestjs/common -->
<g id="edge15" class="edge">
<title>src/satellites/satellite/satellite.module.js&#45;&gt;node_modules/@nestjs/common</title>
<path fill="none" stroke="#000000" stroke-opacity="0.200000" d="M367.14,-174.36C376.23,-171.99 384.72,-169.81 389.25,-168.72 449.22,-154.3 463.63,-147 524.75,-138.72 654.43,-121.16 810.75,-126.82 878.36,-130.55"/>
<polygon fill="#000000" fill-opacity="0.200000" stroke="#000000" stroke-opacity="0.200000" points="878.16,-132.65 884.27,-130.89 878.39,-128.45 878.16,-132.65"/>
</g>
<!-- src/satellites/satellite/satellite.module.js&#45;&gt;src/satellites/satellite/id/satellite&#45;details.module.js -->
<g id="edge13" class="edge">
<title>src/satellites/satellite/satellite.module.js&#45;&gt;src/satellites/satellite/id/satellite&#45;details.module.js</title>
<path fill="none" stroke="#000000" stroke-width="2" stroke-opacity="0.200000" d="M354.55,-193.04C365.02,-197.03 377.63,-201.5 389.25,-204.72 391.14,-205.25 393.08,-205.76 395.03,-206.26"/>
<polygon fill="#000000" fill-opacity="0.200000" stroke="#000000" stroke-width="2" stroke-opacity="0.200000" points="394.44,-208.28 400.77,-207.64 395.43,-204.19 394.44,-208.28"/>
</g>
<!-- src/satellites/satellite/satellite.module.js&#45;&gt;src/satellites/satellite/satellite.controller.js -->
<g id="edge14" class="edge">
<title>src/satellites/satellite/satellite.module.js&#45;&gt;src/satellites/satellite/satellite.controller.js</title>
<path fill="none" stroke="#000000" stroke-width="2" stroke-opacity="0.200000" d="M375.74,-183.72C383.36,-183.72 391.37,-183.72 399.26,-183.72"/>
<polygon fill="#000000" fill-opacity="0.200000" stroke="#000000" stroke-width="2" stroke-opacity="0.200000" points="399.07,-185.82 405.07,-183.72 399.07,-181.62 399.07,-185.82"/>
</g>
<!-- src/satellites/satellites.controller.js&#45;&gt;node_modules/@nestjs/common -->
<g id="edge16" class="edge">
<title>src/satellites/satellites.controller.js&#45;&gt;node_modules/@nestjs/common</title>
<path fill="none" stroke="#000000" stroke-opacity="0.200000" d="M340.73,-140.61C351.38,-130.79 369.93,-115.76 389.25,-109.72 489.58,-78.37 765.14,-69.5 862.25,-109.72 866.9,-111.65 866,-115.03 870.25,-117.72 873.05,-119.49 876.09,-121.09 879.2,-122.53"/>
<polygon fill="#000000" fill-opacity="0.200000" stroke="#000000" stroke-opacity="0.200000" points="878.35,-124.45 884.69,-124.82 879.97,-120.57 878.35,-124.45"/>
</g>
</g>
</svg>
