<?xml version="1.0" encoding="UTF-8" standalone="no"?>
<!DOCTYPE svg PUBLIC "-//W3C//DTD SVG 1.1//EN"
 "http://www.w3.org/Graphics/SVG/1.1/DTD/svg11.dtd">
<!-- Generated by graphviz version 9.0.0 (20230911.1827)
 -->
<!-- Title: dependency&#45;cruiser output Pages: 1 -->
<svg width="430pt" height="538pt"
 viewBox="0.00 0.00 430.00 538.00" xmlns="http://www.w3.org/2000/svg" xmlns:xlink="http://www.w3.org/1999/xlink">
<g id="graph0" class="graph" transform="scale(1 1) rotate(0) translate(4 534)">
<title>dependency&#45;cruiser output</title>
<polygon fill="white" stroke="none" points="-4,4 -4,-534 426,-534 426,4 -4,4"/>
<g id="clust1" class="cluster">
<title>cluster_app</title>
<path fill="#ffffff" stroke="black" stroke-width="2" d="M20,-102C20,-102 402,-102 402,-102 408,-102 414,-108 414,-114 414,-114 414,-510 414,-510 414,-516 408,-522 402,-522 402,-522 20,-522 20,-522 14,-522 8,-516 8,-510 8,-510 8,-114 8,-114 8,-108 14,-102 20,-102"/>
<text text-anchor="middle" x="211" y="-509.45" font-family="Helvetica,sans-Serif" font-weight="bold" font-size="9.00">app</text>
</g>
<g id="clust2" class="cluster">
<title>cluster_app/routes</title>
<path fill="#ffffff" stroke="black" stroke-width="2" d="M184,-110C184,-110 394,-110 394,-110 400,-110 406,-116 406,-122 406,-122 406,-484 406,-484 406,-490 400,-496 394,-496 394,-496 184,-496 184,-496 178,-496 172,-490 172,-484 172,-484 172,-122 172,-122 172,-116 178,-110 184,-110"/>
<text text-anchor="middle" x="289" y="-483.45" font-family="Helvetica,sans-Serif" font-weight="bold" font-size="9.00">routes</text>
</g>
<g id="clust3" class="cluster">
<title>cluster_app/routes/satellites</title>
<path fill="#ffffff" stroke="black" stroke-width="2" d="M192,-118C192,-118 386,-118 386,-118 392,-118 398,-124 398,-130 398,-130 398,-458 398,-458 398,-464 392,-470 386,-470 386,-470 192,-470 192,-470 186,-470 180,-464 180,-458 180,-458 180,-130 180,-130 180,-124 186,-118 192,-118"/>
<text text-anchor="middle" x="289" y="-457.45" font-family="Helvetica,sans-Serif" font-weight="bold" font-size="9.00">satellites</text>
</g>
<g id="clust4" class="cluster">
<title>cluster_app/routes/satellites/satellite</title>
<path fill="#ffffff" stroke="black" stroke-width="2" d="M200,-182C200,-182 378,-182 378,-182 384,-182 390,-188 390,-194 390,-194 390,-432 390,-432 390,-438 384,-444 378,-444 378,-444 200,-444 200,-444 194,-444 188,-438 188,-432 188,-432 188,-194 188,-194 188,-188 194,-182 200,-182"/>
<text text-anchor="middle" x="289" y="-431.45" font-family="Helvetica,sans-Serif" font-weight="bold" font-size="9.00">satellite</text>
</g>
<g id="clust5" class="cluster">
<title>cluster_app/routes/satellites/satellite/details</title>
<path fill="#ffffff" stroke="black" stroke-width="2" d="M208,-306C208,-306 370,-306 370,-306 376,-306 382,-312 382,-318 382,-318 382,-406 382,-406 382,-412 376,-418 370,-418 370,-418 208,-418 208,-418 202,-418 196,-412 196,-406 196,-406 196,-318 196,-318 196,-312 202,-306 208,-306"/>
<text text-anchor="middle" x="289" y="-405.45" font-family="Helvetica,sans-Serif" font-weight="bold" font-size="9.00">details</text>
</g>
<g id="clust6" class="cluster">
<title>cluster_app/routes/satellites/satellite/details/id</title>
<path fill="#ffffff" stroke="black" stroke-width="2" d="M216,-340C216,-340 362,-340 362,-340 368,-340 374,-346 374,-352 374,-352 374,-380 374,-380 374,-386 368,-392 362,-392 362,-392 216,-392 216,-392 210,-392 204,-386 204,-380 204,-380 204,-352 204,-352 204,-346 210,-340 216,-340"/>
<text text-anchor="middle" x="289" y="-379.45" font-family="Helvetica,sans-Serif" font-weight="bold" font-size="9.00">id</text>
</g>
<g id="clust7" class="cluster">
<title>cluster_node_modules</title>
<path fill="#ffffff" stroke="black" stroke-width="2" d="M90,-8C90,-8 152,-8 152,-8 158,-8 164,-14 164,-20 164,-20 164,-82 164,-82 164,-88 158,-94 152,-94 152,-94 90,-94 90,-94 84,-94 78,-88 78,-82 78,-82 78,-20 78,-20 78,-14 84,-8 90,-8"/>
<text text-anchor="middle" x="121" y="-81.45" font-family="Helvetica,sans-Serif" font-weight="bold" font-size="9.00">node_modules</text>
</g>
<g id="clust8" class="cluster">
<title>cluster_node_modules/@hapi</title>
<path fill="#ffffff" stroke="black" stroke-width="2" d="M98,-16C98,-16 144,-16 144,-16 150,-16 156,-22 156,-28 156,-28 156,-56 156,-56 156,-62 150,-68 144,-68 144,-68 98,-68 98,-68 92,-68 86,-62 86,-56 86,-56 86,-28 86,-28 86,-22 92,-16 98,-16"/>
<text text-anchor="middle" x="121" y="-55.45" font-family="Helvetica,sans-Serif" font-weight="bold" font-size="9.00">@hapi</text>
</g>
<!-- app/routes.js -->
<g id="node1" class="node">
<title>app/routes.js</title>
<g id="a_node1"><a xlink:href="app/routes.js" xlink:title="routes.js">
<path fill="#ffffcc" stroke="black" d="M142.08,-237.88C142.08,-237.88 99.92,-237.88 99.92,-237.88 96.96,-237.88 94,-234.92 94,-231.96 94,-231.96 94,-226.04 94,-226.04 94,-223.08 96.96,-220.12 99.92,-220.12 99.92,-220.12 142.08,-220.12 142.08,-220.12 145.04,-220.12 148,-223.08 148,-226.04 148,-226.04 148,-231.96 148,-231.96 148,-234.92 145.04,-237.88 142.08,-237.88"/>
<text text-anchor="start" x="103.75" y="-225.32" font-family="Helvetica,sans-Serif" font-size="9.00">routes.js</text>
</a>
</g>
</g>
<!-- app/routes/satellites/get.satellites.controller.js -->
<g id="node2" class="node">
<title>app/routes/satellites/get.satellites.controller.js</title>
<g id="a_node2"><a xlink:href="app/routes/satellites/get.satellites.controller.js" xlink:title="get.satellites.controller.js">
<path fill="#ffffcc" stroke="black" d="M341.33,-173.88C341.33,-173.88 236.67,-173.88 236.67,-173.88 233.71,-173.88 230.75,-170.92 230.75,-167.96 230.75,-167.96 230.75,-162.04 230.75,-162.04 230.75,-159.08 233.71,-156.12 236.67,-156.12 236.67,-156.12 341.33,-156.12 341.33,-156.12 344.29,-156.12 347.25,-159.08 347.25,-162.04 347.25,-162.04 347.25,-167.96 347.25,-167.96 347.25,-170.92 344.29,-173.88 341.33,-173.88"/>
<text text-anchor="start" x="238.75" y="-161.32" font-family="Helvetica,sans-Serif" font-size="9.00">get.satellites.controller.js</text>
</a>
</g>
</g>
<!-- app/routes.js&#45;&gt;app/routes/satellites/get.satellites.controller.js -->
<g id="edge1" class="edge">
<title>app/routes.js&#45;&gt;app/routes/satellites/get.satellites.controller.js</title>
<path fill="none" stroke="#000000" stroke-width="2" stroke-opacity="0.200000" d="M128.19,-219.77C136.6,-208.08 152.79,-188.34 172,-179 187.22,-171.59 204.85,-167.53 221.69,-165.41"/>
<polygon fill="#000000" fill-opacity="0.200000" stroke="#000000" stroke-width="2" stroke-opacity="0.200000" points="221.66,-167.53 227.4,-164.8 221.21,-163.35 221.66,-167.53"/>
</g>
<!-- app/routes/satellites/post.satellites.controller.js -->
<g id="node3" class="node">
<title>app/routes/satellites/post.satellites.controller.js</title>
<g id="a_node3"><a xlink:href="app/routes/satellites/post.satellites.controller.js" xlink:title="post.satellites.controller.js">
<path fill="#ffffcc" stroke="black" d="M343.58,-143.88C343.58,-143.88 234.42,-143.88 234.42,-143.88 231.46,-143.88 228.5,-140.92 228.5,-137.96 228.5,-137.96 228.5,-132.04 228.5,-132.04 228.5,-129.08 231.46,-126.12 234.42,-126.12 234.42,-126.12 343.58,-126.12 343.58,-126.12 346.54,-126.12 349.5,-129.08 349.5,-132.04 349.5,-132.04 349.5,-137.96 349.5,-137.96 349.5,-140.92 346.54,-143.88 343.58,-143.88"/>
<text text-anchor="start" x="236.5" y="-131.32" font-family="Helvetica,sans-Serif" font-size="9.00">post.satellites.controller.js</text>
</a>
</g>
</g>
<!-- app/routes.js&#45;&gt;app/routes/satellites/post.satellites.controller.js -->
<g id="edge2" class="edge">
<title>app/routes.js&#45;&gt;app/routes/satellites/post.satellites.controller.js</title>
<path fill="none" stroke="#000000" stroke-width="2" stroke-opacity="0.200000" d="M124.89,-219.8C130.74,-202.81 145.72,-166.75 172,-150 186.07,-141.03 203.06,-136.27 219.65,-133.95"/>
<polygon fill="#000000" fill-opacity="0.200000" stroke="#000000" stroke-width="2" stroke-opacity="0.200000" points="219.54,-136.07 225.26,-133.29 219.06,-131.9 219.54,-136.07"/>
</g>
<!-- app/routes/satellites/satellite/delete.satellite.controller.js -->
<g id="node4" class="node">
<title>app/routes/satellites/satellite/delete.satellite.controller.js</title>
<g id="a_node4"><a xlink:href="app/routes/satellites/satellite/delete.satellite.controller.js" xlink:title="delete.satellite.controller.js">
<path fill="#ffffcc" stroke="black" d="M345.46,-297.88C345.46,-297.88 232.54,-297.88 232.54,-297.88 229.58,-297.88 226.62,-294.92 226.62,-291.96 226.62,-291.96 226.62,-286.04 226.62,-286.04 226.62,-283.08 229.58,-280.12 232.54,-280.12 232.54,-280.12 345.46,-280.12 345.46,-280.12 348.42,-280.12 351.38,-283.08 351.38,-286.04 351.38,-286.04 351.38,-291.96 351.38,-291.96 351.38,-294.92 348.42,-297.88 345.46,-297.88"/>
<text text-anchor="start" x="234.62" y="-285.32" font-family="Helvetica,sans-Serif" font-size="9.00">delete.satellite.controller.js</text>
</a>
</g>
</g>
<!-- app/routes.js&#45;&gt;app/routes/satellites/satellite/delete.satellite.controller.js -->
<g id="edge3" class="edge">
<title>app/routes.js&#45;&gt;app/routes/satellites/satellite/delete.satellite.controller.js</title>
<path fill="none" stroke="#000000" stroke-width="2" stroke-opacity="0.200000" d="M129.03,-238.02C137.83,-248.59 153.96,-265.71 172,-274 186.09,-280.47 202.09,-284.42 217.62,-286.77"/>
<polygon fill="#000000" fill-opacity="0.200000" stroke="#000000" stroke-width="2" stroke-opacity="0.200000" points="216.95,-288.8 223.18,-287.52 217.51,-284.64 216.95,-288.8"/>
</g>
<!-- app/routes/satellites/satellite/details/get.satelliteDetails.controller.js -->
<g id="node5" class="node">
<title>app/routes/satellites/satellite/details/get.satelliteDetails.controller.js</title>
<g id="a_node5"><a xlink:href="app/routes/satellites/satellite/details/get.satelliteDetails.controller.js" xlink:title="get.satelliteDetails.controller.js">
<path fill="#ffffcc" stroke="black" d="M353.33,-331.88C353.33,-331.88 224.67,-331.88 224.67,-331.88 221.71,-331.88 218.75,-328.92 218.75,-325.96 218.75,-325.96 218.75,-320.04 218.75,-320.04 218.75,-317.08 221.71,-314.12 224.67,-314.12 224.67,-314.12 353.33,-314.12 353.33,-314.12 356.29,-314.12 359.25,-317.08 359.25,-320.04 359.25,-320.04 359.25,-325.96 359.25,-325.96 359.25,-328.92 356.29,-331.88 353.33,-331.88"/>
<text text-anchor="start" x="226.75" y="-319.32" font-family="Helvetica,sans-Serif" font-size="9.00">get.satelliteDetails.controller.js</text>
</a>
</g>
</g>
<!-- app/routes.js&#45;&gt;app/routes/satellites/satellite/details/get.satelliteDetails.controller.js -->
<g id="edge4" class="edge">
<title>app/routes.js&#45;&gt;app/routes/satellites/satellite/details/get.satelliteDetails.controller.js</title>
<path fill="none" stroke="#000000" stroke-width="2" stroke-opacity="0.200000" d="M124.7,-238.2C130.32,-255.56 145.06,-292.93 172,-310 183.23,-317.12 196.33,-321.44 209.6,-323.93"/>
<polygon fill="#000000" fill-opacity="0.200000" stroke="#000000" stroke-width="2" stroke-opacity="0.200000" points="209.08,-325.98 215.33,-324.84 209.74,-321.83 209.08,-325.98"/>
</g>
<!-- app/routes/satellites/satellite/details/id/get.fullSatelliteDetails.controller.js -->
<g id="node6" class="node">
<title>app/routes/satellites/satellite/details/id/get.fullSatelliteDetails.controller.js</title>
<g id="a_node6"><a xlink:href="app/routes/satellites/satellite/details/id/get.fullSatelliteDetails.controller.js" xlink:title="get.fullSatelliteDetails.controller.js">
<path fill="#ffffcc" stroke="black" d="M360.08,-365.88C360.08,-365.88 217.92,-365.88 217.92,-365.88 214.96,-365.88 212,-362.92 212,-359.96 212,-359.96 212,-354.04 212,-354.04 212,-351.08 214.96,-348.12 217.92,-348.12 217.92,-348.12 360.08,-348.12 360.08,-348.12 363.04,-348.12 366,-351.08 366,-354.04 366,-354.04 366,-359.96 366,-359.96 366,-362.92 363.04,-365.88 360.08,-365.88"/>
<text text-anchor="start" x="220" y="-353.32" font-family="Helvetica,sans-Serif" font-size="9.00">get.fullSatelliteDetails.controller.js</text>
</a>
</g>
</g>
<!-- app/routes.js&#45;&gt;app/routes/satellites/satellite/details/id/get.fullSatelliteDetails.controller.js -->
<g id="edge5" class="edge">
<title>app/routes.js&#45;&gt;app/routes/satellites/satellite/details/id/get.fullSatelliteDetails.controller.js</title>
<path fill="none" stroke="#000000" stroke-width="2" stroke-opacity="0.200000" d="M122.97,-238.37C125.84,-260.82 136.45,-317.74 172,-344 181.16,-350.76 191.88,-355.18 203.05,-357.97"/>
<polygon fill="#000000" fill-opacity="0.200000" stroke="#000000" stroke-width="2" stroke-opacity="0.200000" points="202.38,-359.97 208.69,-359.16 203.25,-355.86 202.38,-359.97"/>
</g>
<!-- app/routes/satellites/satellite/get.satellite.controller.js -->
<g id="node7" class="node">
<title>app/routes/satellites/satellite/get.satellite.controller.js</title>
<g id="a_node7"><a xlink:href="app/routes/satellites/satellite/get.satellite.controller.js" xlink:title="get.satellite.controller.js">
<path fill="#ffffcc" stroke="black" d="M339.08,-267.88C339.08,-267.88 238.92,-267.88 238.92,-267.88 235.96,-267.88 233,-264.92 233,-261.96 233,-261.96 233,-256.04 233,-256.04 233,-253.08 235.96,-250.12 238.92,-250.12 238.92,-250.12 339.08,-250.12 339.08,-250.12 342.04,-250.12 345,-253.08 345,-256.04 345,-256.04 345,-261.96 345,-261.96 345,-264.92 342.04,-267.88 339.08,-267.88"/>
<text text-anchor="start" x="241" y="-255.32" font-family="Helvetica,sans-Serif" font-size="9.00">get.satellite.controller.js</text>
</a>
</g>
</g>
<!-- app/routes.js&#45;&gt;app/routes/satellites/satellite/get.satellite.controller.js -->
<g id="edge6" class="edge">
<title>app/routes.js&#45;&gt;app/routes/satellites/satellite/get.satellite.controller.js</title>
<path fill="none" stroke="#000000" stroke-width="2" stroke-opacity="0.200000" d="M148.26,-237.75C155.85,-240.05 164.2,-242.34 172,-244 188.66,-247.55 206.85,-250.39 223.79,-252.59"/>
<polygon fill="#000000" fill-opacity="0.200000" stroke="#000000" stroke-width="2" stroke-opacity="0.200000" points="223.3,-254.65 229.51,-253.31 223.82,-250.48 223.3,-254.65"/>
</g>
<!-- app/routes/satellites/satellite/patch.satellite.controller.js -->
<g id="node8" class="node">
<title>app/routes/satellites/satellite/patch.satellite.controller.js</title>
<g id="a_node8"><a xlink:href="app/routes/satellites/satellite/patch.satellite.controller.js" xlink:title="patch.satellite.controller.js">
<path fill="#ffffcc" stroke="black" d="M343.96,-237.88C343.96,-237.88 234.04,-237.88 234.04,-237.88 231.08,-237.88 228.12,-234.92 228.12,-231.96 228.12,-231.96 228.12,-226.04 228.12,-226.04 228.12,-223.08 231.08,-220.12 234.04,-220.12 234.04,-220.12 343.96,-220.12 343.96,-220.12 346.92,-220.12 349.88,-223.08 349.88,-226.04 349.88,-226.04 349.88,-231.96 349.88,-231.96 349.88,-234.92 346.92,-237.88 343.96,-237.88"/>
<text text-anchor="start" x="236.12" y="-225.32" font-family="Helvetica,sans-Serif" font-size="9.00">patch.satellite.controller.js</text>
</a>
</g>
</g>
<!-- app/routes.js&#45;&gt;app/routes/satellites/satellite/patch.satellite.controller.js -->
<g id="edge7" class="edge">
<title>app/routes.js&#45;&gt;app/routes/satellites/satellite/patch.satellite.controller.js</title>
<path fill="none" stroke="#000000" stroke-width="2" stroke-opacity="0.200000" d="M148.3,-229C167.36,-229 194.05,-229 219,-229"/>
<polygon fill="#000000" fill-opacity="0.200000" stroke="#000000" stroke-width="2" stroke-opacity="0.200000" points="218.71,-231.1 224.71,-229 218.71,-226.9 218.71,-231.1"/>
</g>
<!-- app/routes/satellites/satellite/put.satellite.controller.js -->
<g id="node9" class="node">
<title>app/routes/satellites/satellite/put.satellite.controller.js</title>
<g id="a_node9"><a xlink:href="app/routes/satellites/satellite/put.satellite.controller.js" xlink:title="put.satellite.controller.js">
<path fill="#ffffcc" stroke="black" d="M339.08,-207.88C339.08,-207.88 238.92,-207.88 238.92,-207.88 235.96,-207.88 233,-204.92 233,-201.96 233,-201.96 233,-196.04 233,-196.04 233,-193.08 235.96,-190.12 238.92,-190.12 238.92,-190.12 339.08,-190.12 339.08,-190.12 342.04,-190.12 345,-193.08 345,-196.04 345,-196.04 345,-201.96 345,-201.96 345,-204.92 342.04,-207.88 339.08,-207.88"/>
<text text-anchor="start" x="241" y="-195.32" font-family="Helvetica,sans-Serif" font-size="9.00">put.satellite.controller.js</text>
</a>
</g>
</g>
<!-- app/routes.js&#45;&gt;app/routes/satellites/satellite/put.satellite.controller.js -->
<g id="edge8" class="edge">
<title>app/routes.js&#45;&gt;app/routes/satellites/satellite/put.satellite.controller.js</title>
<path fill="none" stroke="#000000" stroke-width="2" stroke-opacity="0.200000" d="M148.26,-220.25C155.85,-217.95 164.2,-215.66 172,-214 188.66,-210.45 206.85,-207.61 223.79,-205.41"/>
<polygon fill="#000000" fill-opacity="0.200000" stroke="#000000" stroke-width="2" stroke-opacity="0.200000" points="223.82,-207.52 229.51,-204.69 223.3,-203.35 223.82,-207.52"/>
</g>
<!-- app/server.js -->
<g id="node10" class="node">
<title>app/server.js</title>
<g id="a_node10"><a xlink:href="app/server.js" xlink:title="server.js">
<path fill="#ffffcc" stroke="black" d="M64.08,-182.88C64.08,-182.88 21.92,-182.88 21.92,-182.88 18.96,-182.88 16,-179.92 16,-176.96 16,-176.96 16,-171.04 16,-171.04 16,-168.08 18.96,-165.12 21.92,-165.12 21.92,-165.12 64.08,-165.12 64.08,-165.12 67.04,-165.12 70,-168.08 70,-171.04 70,-171.04 70,-176.96 70,-176.96 70,-179.92 67.04,-182.88 64.08,-182.88"/>
<text text-anchor="start" x="25.75" y="-170.32" font-family="Helvetica,sans-Serif" font-size="9.00">server.js</text>
</a>
</g>
</g>
<!-- app/server.js&#45;&gt;app/routes.js -->
<g id="edge9" class="edge">
<title>app/server.js&#45;&gt;app/routes.js</title>
<path fill="none" stroke="#000000" stroke-width="2" stroke-opacity="0.200000" d="M56.89,-183.33C68.76,-191.92 86.53,-204.78 100.19,-214.67"/>
<polygon fill="#000000" fill-opacity="0.200000" stroke="#000000" stroke-width="2" stroke-opacity="0.200000" points="98.75,-216.22 104.85,-218.03 101.22,-212.81 98.75,-216.22"/>
</g>
<!-- node_modules/@hapi/hapi -->
<g id="node11" class="node">
<title>node_modules/@hapi/hapi</title>
<g id="a_node11"><a xlink:href="https://www.npmjs.com/package/@hapi/hapi" xlink:title="hapi">
<polygon fill="#c40b0a" fill-opacity="0.101961" stroke="black" points="148,-41.88 95.97,-41.88 94,-39.9 94,-24.12 146.03,-24.12 148,-26.1 148,-41.88"/>
<polyline fill="none" stroke="black" points="146.03,-39.9 94,-39.9"/>
<polyline fill="none" stroke="black" points="146.03,-39.9 146.03,-24.12"/>
<polyline fill="none" stroke="black" points="146.03,-39.9 148,-41.88"/>
<text text-anchor="start" x="112" y="-29.32" font-family="Helvetica,sans-Serif" font-size="9.00" fill="#c40b0a">hapi</text>
</a>
</g>
</g>
<!-- app/server.js&#45;&gt;node_modules/@hapi/hapi -->
<g id="edge10" class="edge">
<title>app/server.js&#45;&gt;node_modules/@hapi/hapi</title>
<path fill="none" stroke="#000000" stroke-opacity="0.200000" d="M47.58,-165.03C53.39,-150.76 65.48,-122.13 78,-99 87.78,-80.93 100.66,-61.18 109.57,-48.03"/>
<polygon fill="#000000" fill-opacity="0.200000" stroke="#000000" stroke-opacity="0.200000" points="111.09,-49.54 112.74,-43.4 107.62,-47.17 111.09,-49.54"/>
</g>
</g>
</svg>
