<?xml version="1.0" encoding="UTF-8" standalone="no"?>
<!DOCTYPE svg PUBLIC "-//W3C//DTD SVG 1.1//EN"
 "http://www.w3.org/Graphics/SVG/1.1/DTD/svg11.dtd">
<!-- Generated by graphviz version 9.0.0 (20230911.1827)
 -->
<!-- Title: dependency&#45;cruiser output Pages: 1 -->
<svg width="326pt" height="490pt"
 viewBox="0.00 0.00 325.50 489.88" xmlns="http://www.w3.org/2000/svg" xmlns:xlink="http://www.w3.org/1999/xlink">
<g id="graph0" class="graph" transform="scale(1 1) rotate(0) translate(4 485.88)">
<title>dependency&#45;cruiser output</title>
<polygon fill="white" stroke="none" points="-4,4 -4,-485.88 321.5,-485.88 321.5,4 -4,4"/>
<g id="clust1" class="cluster">
<title>cluster_app</title>
<path fill="#ffffff" stroke="black" stroke-width="2" d="M20,-27.88C20,-27.88 208,-27.88 208,-27.88 214,-27.88 220,-33.88 220,-39.88 220,-39.88 220,-461.88 220,-461.88 220,-467.88 214,-473.88 208,-473.88 208,-473.88 20,-473.88 20,-473.88 14,-473.88 8,-467.88 8,-461.88 8,-461.88 8,-39.88 8,-39.88 8,-33.88 14,-27.88 20,-27.88"/>
<text text-anchor="middle" x="114" y="-461.32" font-family="Helvetica,sans-Serif" font-weight="bold" font-size="9.00">app</text>
</g>
<g id="clust2" class="cluster">
<title>cluster_app/api</title>
<path fill="#ffffff" stroke="black" stroke-width="2" d="M28,-61.88C28,-61.88 138,-61.88 138,-61.88 144,-61.88 150,-67.88 150,-73.88 150,-73.88 150,-435.88 150,-435.88 150,-441.88 144,-447.88 138,-447.88 138,-447.88 28,-447.88 28,-447.88 22,-447.88 16,-441.88 16,-435.88 16,-435.88 16,-73.88 16,-73.88 16,-67.88 22,-61.88 28,-61.88"/>
<text text-anchor="middle" x="83" y="-435.32" font-family="Helvetica,sans-Serif" font-weight="bold" font-size="9.00">api</text>
</g>
<g id="clust3" class="cluster">
<title>cluster_app/api/satellites</title>
<path fill="#ffffff" stroke="black" stroke-width="2" d="M36,-69.88C36,-69.88 130,-69.88 130,-69.88 136,-69.88 142,-75.88 142,-81.88 142,-81.88 142,-409.88 142,-409.88 142,-415.88 136,-421.88 130,-421.88 130,-421.88 36,-421.88 36,-421.88 30,-421.88 24,-415.88 24,-409.88 24,-409.88 24,-81.88 24,-81.88 24,-75.88 30,-69.88 36,-69.88"/>
<text text-anchor="middle" x="83" y="-409.32" font-family="Helvetica,sans-Serif" font-weight="bold" font-size="9.00">satellites</text>
</g>
<g id="clust4" class="cluster">
<title>cluster_app/api/satellites/[id]</title>
<path fill="#ffffff" stroke="black" stroke-width="2" d="M44,-133.88C44,-133.88 122,-133.88 122,-133.88 128,-133.88 134,-139.88 134,-145.88 134,-145.88 134,-383.88 134,-383.88 134,-389.88 128,-395.88 122,-395.88 122,-395.88 44,-395.88 44,-395.88 38,-395.88 32,-389.88 32,-383.88 32,-383.88 32,-145.88 32,-145.88 32,-139.88 38,-133.88 44,-133.88"/>
<text text-anchor="middle" x="83" y="-383.32" font-family="Helvetica,sans-Serif" font-weight="bold" font-size="9.00">[id]</text>
</g>
<g id="clust5" class="cluster">
<title>cluster_app/api/satellites/[id]/details</title>
<path fill="#ffffff" stroke="black" stroke-width="2" d="M52,-257.88C52,-257.88 114,-257.88 114,-257.88 120,-257.88 126,-263.88 126,-269.88 126,-269.88 126,-357.88 126,-357.88 126,-363.88 120,-369.88 114,-369.88 114,-369.88 52,-369.88 52,-369.88 46,-369.88 40,-363.88 40,-357.88 40,-357.88 40,-269.88 40,-269.88 40,-263.88 46,-257.88 52,-257.88"/>
<text text-anchor="middle" x="83" y="-357.32" font-family="Helvetica,sans-Serif" font-weight="bold" font-size="9.00">details</text>
</g>
<g id="clust6" class="cluster">
<title>cluster_app/api/satellites/[id]/details/[detailId]</title>
<path fill="#ffffff" stroke="black" stroke-width="2" d="M60,-291.88C60,-291.88 106,-291.88 106,-291.88 112,-291.88 118,-297.88 118,-303.88 118,-303.88 118,-331.88 118,-331.88 118,-337.88 112,-343.88 106,-343.88 106,-343.88 60,-343.88 60,-343.88 54,-343.88 48,-337.88 48,-331.88 48,-331.88 48,-303.88 48,-303.88 48,-297.88 54,-291.88 60,-291.88"/>
<text text-anchor="middle" x="83" y="-331.32" font-family="Helvetica,sans-Serif" font-weight="bold" font-size="9.00">[detailId]</text>
</g>
<g id="clust7" class="cluster">
<title>cluster_node_modules</title>
<path fill="#ffffff" stroke="black" stroke-width="2" d="M240,-55.88C240,-55.88 297.5,-55.88 297.5,-55.88 303.5,-55.88 309.5,-61.88 309.5,-67.88 309.5,-67.88 309.5,-125.88 309.5,-125.88 309.5,-131.88 303.5,-137.88 297.5,-137.88 297.5,-137.88 240,-137.88 240,-137.88 234,-137.88 228,-131.88 228,-125.88 228,-125.88 228,-67.88 228,-67.88 228,-61.88 234,-55.88 240,-55.88"/>
<text text-anchor="middle" x="268.75" y="-125.33" font-family="Helvetica,sans-Serif" font-weight="bold" font-size="9.00">node_modules</text>
</g>
<!-- app/api/satellites/[id]/delete.js -->
<g id="node1" class="node">
<title>app/api/satellites/[id]/delete.js</title>
<g id="a_node1"><a xlink:href="app/api/satellites/[id]/delete.js" xlink:title="no&#45;orphans">
<path fill="#ccffcc" stroke="orange" d="M104.08,-249.75C104.08,-249.75 61.92,-249.75 61.92,-249.75 58.96,-249.75 56,-246.79 56,-243.83 56,-243.83 56,-237.92 56,-237.92 56,-234.96 58.96,-232 61.92,-232 61.92,-232 104.08,-232 104.08,-232 107.04,-232 110,-234.96 110,-237.92 110,-237.92 110,-243.83 110,-243.83 110,-246.79 107.04,-249.75 104.08,-249.75"/>
<text text-anchor="start" x="65.75" y="-237.2" font-family="Helvetica,sans-Serif" font-size="9.00" fill="orange">delete.js</text>
</a>
</g>
</g>
<!-- app/api/satellites/[id]/details/[detailId]/get.js -->
<g id="node2" class="node">
<title>app/api/satellites/[id]/details/[detailId]/get.js</title>
<g id="a_node2"><a xlink:href="app/api/satellites/[id]/details/[detailId]/get.js" xlink:title="no&#45;orphans">
<path fill="#ccffcc" stroke="orange" d="M104.08,-317.75C104.08,-317.75 61.92,-317.75 61.92,-317.75 58.96,-317.75 56,-314.79 56,-311.83 56,-311.83 56,-305.92 56,-305.92 56,-302.96 58.96,-300 61.92,-300 61.92,-300 104.08,-300 104.08,-300 107.04,-300 110,-302.96 110,-305.92 110,-305.92 110,-311.83 110,-311.83 110,-314.79 107.04,-317.75 104.08,-317.75"/>
<text text-anchor="start" x="72.12" y="-305.2" font-family="Helvetica,sans-Serif" font-size="9.00" fill="orange">get.js</text>
</a>
</g>
</g>
<!-- app/api/satellites/[id]/details/get.js -->
<g id="node3" class="node">
<title>app/api/satellites/[id]/details/get.js</title>
<g id="a_node3"><a xlink:href="app/api/satellites/[id]/details/get.js" xlink:title="no&#45;orphans">
<path fill="#ccffcc" stroke="orange" d="M104.08,-283.75C104.08,-283.75 61.92,-283.75 61.92,-283.75 58.96,-283.75 56,-280.79 56,-277.83 56,-277.83 56,-271.92 56,-271.92 56,-268.96 58.96,-266 61.92,-266 61.92,-266 104.08,-266 104.08,-266 107.04,-266 110,-268.96 110,-271.92 110,-271.92 110,-277.83 110,-277.83 110,-280.79 107.04,-283.75 104.08,-283.75"/>
<text text-anchor="start" x="72.12" y="-271.2" font-family="Helvetica,sans-Serif" font-size="9.00" fill="orange">get.js</text>
</a>
</g>
</g>
<!-- app/api/satellites/[id]/get.js -->
<g id="node4" class="node">
<title>app/api/satellites/[id]/get.js</title>
<g id="a_node4"><a xlink:href="app/api/satellites/[id]/get.js" xlink:title="no&#45;orphans">
<path fill="#ccffcc" stroke="orange" d="M104.08,-219.75C104.08,-219.75 61.92,-219.75 61.92,-219.75 58.96,-219.75 56,-216.79 56,-213.83 56,-213.83 56,-207.92 56,-207.92 56,-204.96 58.96,-202 61.92,-202 61.92,-202 104.08,-202 104.08,-202 107.04,-202 110,-204.96 110,-207.92 110,-207.92 110,-213.83 110,-213.83 110,-216.79 107.04,-219.75 104.08,-219.75"/>
<text text-anchor="start" x="72.12" y="-207.2" font-family="Helvetica,sans-Serif" font-size="9.00" fill="orange">get.js</text>
</a>
</g>
</g>
<!-- app/api/satellites/[id]/patch.js -->
<g id="node5" class="node">
<title>app/api/satellites/[id]/patch.js</title>
<g id="a_node5"><a xlink:href="app/api/satellites/[id]/patch.js" xlink:title="no&#45;orphans">
<path fill="#ccffcc" stroke="orange" d="M104.08,-189.75C104.08,-189.75 61.92,-189.75 61.92,-189.75 58.96,-189.75 56,-186.79 56,-183.83 56,-183.83 56,-177.92 56,-177.92 56,-174.96 58.96,-172 61.92,-172 61.92,-172 104.08,-172 104.08,-172 107.04,-172 110,-174.96 110,-177.92 110,-177.92 110,-183.83 110,-183.83 110,-186.79 107.04,-189.75 104.08,-189.75"/>
<text text-anchor="start" x="67.25" y="-177.2" font-family="Helvetica,sans-Serif" font-size="9.00" fill="orange">patch.js</text>
</a>
</g>
</g>
<!-- app/api/satellites/[id]/put.js -->
<g id="node6" class="node">
<title>app/api/satellites/[id]/put.js</title>
<g id="a_node6"><a xlink:href="app/api/satellites/[id]/put.js" xlink:title="no&#45;orphans">
<path fill="#ccffcc" stroke="orange" d="M104.08,-159.75C104.08,-159.75 61.92,-159.75 61.92,-159.75 58.96,-159.75 56,-156.79 56,-153.83 56,-153.83 56,-147.92 56,-147.92 56,-144.96 58.96,-142 61.92,-142 61.92,-142 104.08,-142 104.08,-142 107.04,-142 110,-144.96 110,-147.92 110,-147.92 110,-153.83 110,-153.83 110,-156.79 107.04,-159.75 104.08,-159.75"/>
<text text-anchor="start" x="72.12" y="-147.2" font-family="Helvetica,sans-Serif" font-size="9.00" fill="orange">put.js</text>
</a>
</g>
</g>
<!-- app/api/satellites/get.js -->
<g id="node7" class="node">
<title>app/api/satellites/get.js</title>
<g id="a_node7"><a xlink:href="app/api/satellites/get.js" xlink:title="no&#45;orphans">
<path fill="#ccffcc" stroke="orange" d="M104.08,-125.75C104.08,-125.75 61.92,-125.75 61.92,-125.75 58.96,-125.75 56,-122.79 56,-119.83 56,-119.83 56,-113.92 56,-113.92 56,-110.96 58.96,-108 61.92,-108 61.92,-108 104.08,-108 104.08,-108 107.04,-108 110,-110.96 110,-113.92 110,-113.92 110,-119.83 110,-119.83 110,-122.79 107.04,-125.75 104.08,-125.75"/>
<text text-anchor="start" x="72.12" y="-113.2" font-family="Helvetica,sans-Serif" font-size="9.00" fill="orange">get.js</text>
</a>
</g>
</g>
<!-- app/api/satellites/post.js -->
<g id="node8" class="node">
<title>app/api/satellites/post.js</title>
<g id="a_node8"><a xlink:href="app/api/satellites/post.js" xlink:title="no&#45;orphans">
<path fill="#ccffcc" stroke="orange" d="M104.08,-95.75C104.08,-95.75 61.92,-95.75 61.92,-95.75 58.96,-95.75 56,-92.79 56,-89.83 56,-89.83 56,-83.92 56,-83.92 56,-80.96 58.96,-78 61.92,-78 61.92,-78 104.08,-78 104.08,-78 107.04,-78 110,-80.96 110,-83.92 110,-83.92 110,-89.83 110,-89.83 110,-92.79 107.04,-95.75 104.08,-95.75"/>
<text text-anchor="start" x="69.88" y="-83.2" font-family="Helvetica,sans-Serif" font-size="9.00" fill="orange">post.js</text>
</a>
</g>
</g>
<!-- app/index.js -->
<g id="node9" class="node">
<title>app/index.js</title>
<g id="a_node9"><a xlink:href="app/index.js" xlink:title="index.js">
<path fill="#ffffcc" stroke="black" d="M104.08,-53.75C104.08,-53.75 61.92,-53.75 61.92,-53.75 58.96,-53.75 56,-50.79 56,-47.83 56,-47.83 56,-41.92 56,-41.92 56,-38.96 58.96,-36 61.92,-36 61.92,-36 104.08,-36 104.08,-36 107.04,-36 110,-38.96 110,-41.92 110,-41.92 110,-47.83 110,-47.83 110,-50.79 107.04,-53.75 104.08,-53.75"/>
<text text-anchor="start" x="67.25" y="-41.2" font-family="Helvetica,sans-Serif" font-size="9.00">index.js</text>
</a>
</g>
</g>
<!-- app/mbr.js -->
<g id="node10" class="node">
<title>app/mbr.js</title>
<g id="a_node10"><a xlink:href="app/mbr.js" xlink:title="mbr.js">
<path fill="#ffffcc" stroke="black" d="M206.08,-53.75C206.08,-53.75 163.92,-53.75 163.92,-53.75 160.96,-53.75 158,-50.79 158,-47.83 158,-47.83 158,-41.92 158,-41.92 158,-38.96 160.96,-36 163.92,-36 163.92,-36 206.08,-36 206.08,-36 209.04,-36 212,-38.96 212,-41.92 212,-41.92 212,-47.83 212,-47.83 212,-50.79 209.04,-53.75 206.08,-53.75"/>
<text text-anchor="start" x="172.62" y="-41.2" font-family="Helvetica,sans-Serif" font-size="9.00">mbr.js</text>
</a>
</g>
</g>
<!-- app/index.js&#45;&gt;app/mbr.js -->
<g id="edge1" class="edge">
<title>app/index.js&#45;&gt;app/mbr.js</title>
<path fill="none" stroke="#000000" stroke-width="2" stroke-opacity="0.200000" d="M110.27,-44.88C122.01,-44.88 136.01,-44.88 148.65,-44.88"/>
<polygon fill="#000000" fill-opacity="0.200000" stroke="#000000" stroke-width="2" stroke-opacity="0.200000" points="148.53,-46.98 154.53,-44.88 148.53,-42.78 148.53,-46.98"/>
</g>
<!-- node_modules/body&#45;parser -->
<g id="node11" class="node">
<title>node_modules/body&#45;parser</title>
<g id="a_node11"><a xlink:href="https://www.npmjs.com/package/body-parser" xlink:title="body&#45;parser">
<polygon fill="#c40b0a" fill-opacity="0.101961" stroke="black" points="301.5,-111.75 237.97,-111.75 236,-109.78 236,-94 299.53,-94 301.5,-95.97 301.5,-111.75"/>
<polyline fill="none" stroke="black" points="299.53,-109.78 236,-109.78"/>
<polyline fill="none" stroke="black" points="299.53,-109.78 299.53,-94"/>
<polyline fill="none" stroke="black" points="299.53,-109.78 301.5,-111.75"/>
<text text-anchor="start" x="244" y="-99.2" font-family="Helvetica,sans-Serif" font-size="9.00" fill="#c40b0a">body&#45;parser</text>
</a>
</g>
</g>
<!-- app/index.js&#45;&gt;node_modules/body&#45;parser -->
<g id="edge2" class="edge">
<title>app/index.js&#45;&gt;node_modules/body&#45;parser</title>
<path fill="none" stroke="#000000" stroke-opacity="0.200000" d="M110.49,-51.58C122.87,-55.25 137.59,-60.37 150,-66.88 153.94,-68.94 154.01,-70.92 158,-72.88 180.32,-83.8 207.2,-91.23 228.77,-95.96"/>
<polygon fill="#000000" fill-opacity="0.200000" stroke="#000000" stroke-opacity="0.200000" points="228.08,-97.96 234.39,-97.15 228.95,-93.86 228.08,-97.96"/>
</g>
<!-- node_modules/express -->
<g id="node12" class="node">
<title>node_modules/express</title>
<g id="a_node12"><a xlink:href="https://www.npmjs.com/package/express" xlink:title="express">
<polygon fill="#c40b0a" fill-opacity="0.101961" stroke="black" points="295.75,-81.75 243.72,-81.75 241.75,-79.78 241.75,-64 293.78,-64 295.75,-65.97 295.75,-81.75"/>
<polyline fill="none" stroke="black" points="293.78,-79.78 241.75,-79.78"/>
<polyline fill="none" stroke="black" points="293.78,-79.78 293.78,-64"/>
<polyline fill="none" stroke="black" points="293.78,-79.78 295.75,-81.75"/>
<text text-anchor="start" x="252.62" y="-69.2" font-family="Helvetica,sans-Serif" font-size="9.00" fill="#c40b0a">express</text>
</a>
</g>
</g>
<!-- app/index.js&#45;&gt;node_modules/express -->
<g id="edge3" class="edge">
<title>app/index.js&#45;&gt;node_modules/express</title>
<path fill="none" stroke="#000000" stroke-opacity="0.200000" d="M110.28,-50.75C124.37,-53.76 142.08,-57.32 158,-59.88 183.42,-63.95 212.34,-67.32 234.11,-69.61"/>
<polygon fill="#000000" fill-opacity="0.200000" stroke="#000000" stroke-opacity="0.200000" points="233.81,-71.69 239.99,-70.22 234.24,-67.52 233.81,-71.69"/>
</g>
<!-- app/mbr.js&#45;&gt;node_modules/express -->
<g id="edge4" class="edge">
<title>app/mbr.js&#45;&gt;node_modules/express</title>
<path fill="none" stroke="#000000" stroke-opacity="0.200000" d="M212.32,-53.89C219.46,-56.34 227.29,-59.02 234.76,-61.58"/>
<polygon fill="#000000" fill-opacity="0.200000" stroke="#000000" stroke-opacity="0.200000" points="233.69,-63.43 240.05,-63.39 235.06,-59.46 233.69,-63.43"/>
</g>
<!-- fs -->
<g id="node13" class="node">
<title>fs</title>
<g id="a_node13"><a xlink:href="https://nodejs.org/api/fs.html" xlink:title="fs">
<path fill="#ffffcc" stroke="grey" d="M289.83,-47.75C289.83,-47.75 247.67,-47.75 247.67,-47.75 244.71,-47.75 241.75,-44.79 241.75,-41.83 241.75,-41.83 241.75,-35.92 241.75,-35.92 241.75,-32.96 244.71,-30 247.67,-30 247.67,-30 289.83,-30 289.83,-30 292.79,-30 295.75,-32.96 295.75,-35.92 295.75,-35.92 295.75,-41.83 295.75,-41.83 295.75,-44.79 292.79,-47.75 289.83,-47.75"/>
<text text-anchor="middle" x="268.75" y="-35.2" font-family="Helvetica,sans-Serif" font-size="9.00" fill="grey">fs</text>
</a>
</g>
</g>
<!-- app/mbr.js&#45;&gt;fs -->
<g id="edge5" class="edge">
<title>app/mbr.js&#45;&gt;fs</title>
<path fill="none" stroke="#000000" stroke-dasharray="5,2" stroke-opacity="0.200000" d="M212.32,-42.94C219.32,-42.43 226.97,-41.87 234.3,-41.33"/>
<polygon fill="#000000" fill-opacity="0.200000" stroke="#000000" stroke-opacity="0.200000" points="234.14,-43.45 239.97,-40.91 233.84,-39.26 234.14,-43.45"/>
</g>
<!-- path -->
<g id="node14" class="node">
<title>path</title>
<g id="a_node14"><a xlink:href="https://nodejs.org/api/path.html" xlink:title="path">
<path fill="#ffffcc" stroke="grey" d="M289.83,-17.75C289.83,-17.75 247.67,-17.75 247.67,-17.75 244.71,-17.75 241.75,-14.79 241.75,-11.83 241.75,-11.83 241.75,-5.92 241.75,-5.92 241.75,-2.96 244.71,0 247.67,0 247.67,0 289.83,0 289.83,0 292.79,0 295.75,-2.96 295.75,-5.92 295.75,-5.92 295.75,-11.83 295.75,-11.83 295.75,-14.79 292.79,-17.75 289.83,-17.75"/>
<text text-anchor="middle" x="268.75" y="-5.2" font-family="Helvetica,sans-Serif" font-size="9.00" fill="grey">path</text>
</a>
</g>
</g>
<!-- app/mbr.js&#45;&gt;path -->
<g id="edge6" class="edge">
<title>app/mbr.js&#45;&gt;path</title>
<path fill="none" stroke="#000000" stroke-dasharray="5,2" stroke-opacity="0.200000" d="M203.38,-35.68C210.87,-31.85 219.78,-27.47 228,-23.88 230.37,-22.84 232.84,-21.81 235.33,-20.79"/>
<polygon fill="#000000" fill-opacity="0.200000" stroke="#000000" stroke-opacity="0.200000" points="235.72,-22.89 240.53,-18.73 234.18,-18.99 235.72,-22.89"/>
</g>
</g>
</svg>
