<?xml version="1.0" encoding="UTF-8" standalone="no"?>
<!DOCTYPE svg PUBLIC "-//W3C//DTD SVG 1.1//EN"
 "http://www.w3.org/Graphics/SVG/1.1/DTD/svg11.dtd">
<!-- Generated by graphviz version 9.0.0 (20230911.1827)
 -->
<!-- Title: dependency&#45;cruiser output Pages: 1 -->
<svg width="268pt" height="440pt"
 viewBox="0.00 0.00 267.75 440.00" xmlns="http://www.w3.org/2000/svg" xmlns:xlink="http://www.w3.org/1999/xlink">
<g id="graph0" class="graph" transform="scale(1 1) rotate(0) translate(4 436)">
<title>dependency&#45;cruiser output</title>
<polygon fill="white" stroke="none" points="-4,4 -4,-436 263.75,-436 263.75,4 -4,4"/>
<g id="clust1" class="cluster">
<title>cluster_app</title>
<path fill="#ffffff" stroke="black" stroke-width="2" d="M20,-68C20,-68 239.75,-68 239.75,-68 245.75,-68 251.75,-74 251.75,-80 251.75,-80 251.75,-412 251.75,-412 251.75,-418 245.75,-424 239.75,-424 239.75,-424 20,-424 20,-424 14,-424 8,-418 8,-412 8,-412 8,-80 8,-80 8,-74 14,-68 20,-68"/>
<text text-anchor="middle" x="129.88" y="-411.45" font-family="Helvetica,sans-Serif" font-weight="bold" font-size="9.00">app</text>
</g>
<g id="clust2" class="cluster">
<title>cluster_app/(api)</title>
<path fill="#ffffff" stroke="black" stroke-width="2" d="M28,-76C28,-76 138,-76 138,-76 144,-76 150,-82 150,-88 150,-88 150,-330 150,-330 150,-336 144,-342 138,-342 138,-342 28,-342 28,-342 22,-342 16,-336 16,-330 16,-330 16,-88 16,-88 16,-82 22,-76 28,-76"/>
<text text-anchor="middle" x="83" y="-329.45" font-family="Helvetica,sans-Serif" font-weight="bold" font-size="9.00">(api)</text>
</g>
<g id="clust3" class="cluster">
<title>cluster_app/(api)/satellites</title>
<path fill="#ffffff" stroke="black" stroke-width="2" d="M36,-84C36,-84 130,-84 130,-84 136,-84 142,-90 142,-96 142,-96 142,-304 142,-304 142,-310 136,-316 130,-316 130,-316 36,-316 36,-316 30,-316 24,-310 24,-304 24,-304 24,-96 24,-96 24,-90 30,-84 36,-84"/>
<text text-anchor="middle" x="83" y="-303.45" font-family="Helvetica,sans-Serif" font-weight="bold" font-size="9.00">satellites</text>
</g>
<g id="clust4" class="cluster">
<title>cluster_app/(api)/satellites/[id]</title>
<path fill="#ffffff" stroke="black" stroke-width="2" d="M44,-118C44,-118 122,-118 122,-118 128,-118 134,-124 134,-130 134,-130 134,-278 134,-278 134,-284 128,-290 122,-290 122,-290 44,-290 44,-290 38,-290 32,-284 32,-278 32,-278 32,-130 32,-130 32,-124 38,-118 44,-118"/>
<text text-anchor="middle" x="83" y="-277.45" font-family="Helvetica,sans-Serif" font-weight="bold" font-size="9.00">[id]</text>
</g>
<g id="clust5" class="cluster">
<title>cluster_app/(api)/satellites/[id]/details</title>
<path fill="#ffffff" stroke="black" stroke-width="2" d="M52,-152C52,-152 114,-152 114,-152 120,-152 126,-158 126,-164 126,-164 126,-252 126,-252 126,-258 120,-264 114,-264 114,-264 52,-264 52,-264 46,-264 40,-258 40,-252 40,-252 40,-164 40,-164 40,-158 46,-152 52,-152"/>
<text text-anchor="middle" x="83" y="-251.45" font-family="Helvetica,sans-Serif" font-weight="bold" font-size="9.00">details</text>
</g>
<g id="clust6" class="cluster">
<title>cluster_app/(api)/satellites/[id]/details/[detailId]</title>
<path fill="#ffffff" stroke="black" stroke-width="2" d="M60,-186C60,-186 106,-186 106,-186 112,-186 118,-192 118,-198 118,-198 118,-226 118,-226 118,-232 112,-238 106,-238 106,-238 60,-238 60,-238 54,-238 48,-232 48,-226 48,-226 48,-198 48,-198 48,-192 54,-186 60,-186"/>
<text text-anchor="middle" x="83" y="-225.45" font-family="Helvetica,sans-Serif" font-weight="bold" font-size="9.00">[detailId]</text>
</g>
<g id="clust7" class="cluster">
<title>cluster_node_modules</title>
<path fill="#ffffff" stroke="black" stroke-width="2" d="M173.88,-8C173.88,-8 228.88,-8 228.88,-8 234.88,-8 240.88,-14 240.88,-20 240.88,-20 240.88,-48 240.88,-48 240.88,-54 234.88,-60 228.88,-60 228.88,-60 173.88,-60 173.88,-60 167.88,-60 161.88,-54 161.88,-48 161.88,-48 161.88,-20 161.88,-20 161.88,-14 167.88,-8 173.88,-8"/>
<text text-anchor="middle" x="201.38" y="-47.45" font-family="Helvetica,sans-Serif" font-weight="bold" font-size="9.00">node_modules</text>
</g>
<!-- app/(api)/satellites/[id]/details/[detailId]/route.js -->
<g id="node1" class="node">
<title>app/(api)/satellites/[id]/details/[detailId]/route.js</title>
<g id="a_node1"><a xlink:href="app/(api)/satellites/[id]/details/[detailId]/route.js" xlink:title="route.js">
<path fill="#ffffcc" stroke="black" d="M104.08,-211.88C104.08,-211.88 61.92,-211.88 61.92,-211.88 58.96,-211.88 56,-208.92 56,-205.96 56,-205.96 56,-200.04 56,-200.04 56,-197.08 58.96,-194.12 61.92,-194.12 61.92,-194.12 104.08,-194.12 104.08,-194.12 107.04,-194.12 110,-197.08 110,-200.04 110,-200.04 110,-205.96 110,-205.96 110,-208.92 107.04,-211.88 104.08,-211.88"/>
<text text-anchor="start" x="68" y="-199.32" font-family="Helvetica,sans-Serif" font-size="9.00">route.js</text>
</a>
</g>
</g>
<!-- node_modules/next -->
<g id="node2" class="node">
<title>node_modules/next</title>
<g id="a_node2"><a xlink:href="https://www.npmjs.com/package/next" xlink:title="next">
<polygon fill="#c40b0a" fill-opacity="0.101961" stroke="black" points="227.88,-33.88 175.85,-33.88 173.88,-31.9 173.88,-16.12 225.9,-16.12 227.88,-18.1 227.88,-33.88"/>
<polyline fill="none" stroke="black" points="225.9,-31.9 173.88,-31.9"/>
<polyline fill="none" stroke="black" points="225.9,-31.9 225.9,-16.12"/>
<polyline fill="none" stroke="black" points="225.9,-31.9 227.88,-33.88"/>
<text text-anchor="start" x="192.25" y="-21.32" font-family="Helvetica,sans-Serif" font-size="9.00" fill="#c40b0a">next</text>
</a>
</g>
</g>
<!-- app/(api)/satellites/[id]/details/[detailId]/route.js&#45;&gt;node_modules/next -->
<g id="edge1" class="edge">
<title>app/(api)/satellites/[id]/details/[detailId]/route.js&#45;&gt;node_modules/next</title>
<path fill="none" stroke="#000000" stroke-opacity="0.200000" d="M110.27,-204.91C124.16,-204.38 140.3,-201.06 150,-190 168.36,-169.08 146.24,-90.23 158,-65 162.83,-54.63 171.64,-45.58 179.93,-38.72"/>
<polygon fill="#000000" fill-opacity="0.200000" stroke="#000000" stroke-opacity="0.200000" points="180.91,-40.62 184.34,-35.27 178.32,-37.31 180.91,-40.62"/>
</g>
<!-- app/(api)/satellites/[id]/details/route.js -->
<g id="node3" class="node">
<title>app/(api)/satellites/[id]/details/route.js</title>
<g id="a_node3"><a xlink:href="app/(api)/satellites/[id]/details/route.js" xlink:title="route.js">
<path fill="#ffffcc" stroke="black" d="M104.08,-177.88C104.08,-177.88 61.92,-177.88 61.92,-177.88 58.96,-177.88 56,-174.92 56,-171.96 56,-171.96 56,-166.04 56,-166.04 56,-163.08 58.96,-160.12 61.92,-160.12 61.92,-160.12 104.08,-160.12 104.08,-160.12 107.04,-160.12 110,-163.08 110,-166.04 110,-166.04 110,-171.96 110,-171.96 110,-174.92 107.04,-177.88 104.08,-177.88"/>
<text text-anchor="start" x="68" y="-165.32" font-family="Helvetica,sans-Serif" font-size="9.00">route.js</text>
</a>
</g>
</g>
<!-- app/(api)/satellites/[id]/details/route.js&#45;&gt;node_modules/next -->
<g id="edge2" class="edge">
<title>app/(api)/satellites/[id]/details/route.js&#45;&gt;node_modules/next</title>
<path fill="none" stroke="#000000" stroke-opacity="0.200000" d="M110.5,-170.8C124.28,-170.21 140.24,-166.86 150,-156 163.57,-140.9 149.21,-83.3 158,-65 163.02,-54.55 172.03,-45.39 180.4,-38.49"/>
<polygon fill="#000000" fill-opacity="0.200000" stroke="#000000" stroke-opacity="0.200000" points="181.41,-40.36 184.85,-35.01 178.82,-37.05 181.41,-40.36"/>
</g>
<!-- app/(api)/satellites/[id]/route.js -->
<g id="node4" class="node">
<title>app/(api)/satellites/[id]/route.js</title>
<g id="a_node4"><a xlink:href="app/(api)/satellites/[id]/route.js" xlink:title="route.js">
<path fill="#ffffcc" stroke="black" d="M104.08,-143.88C104.08,-143.88 61.92,-143.88 61.92,-143.88 58.96,-143.88 56,-140.92 56,-137.96 56,-137.96 56,-132.04 56,-132.04 56,-129.08 58.96,-126.12 61.92,-126.12 61.92,-126.12 104.08,-126.12 104.08,-126.12 107.04,-126.12 110,-129.08 110,-132.04 110,-132.04 110,-137.96 110,-137.96 110,-140.92 107.04,-143.88 104.08,-143.88"/>
<text text-anchor="start" x="68" y="-131.32" font-family="Helvetica,sans-Serif" font-size="9.00">route.js</text>
</a>
</g>
</g>
<!-- app/(api)/satellites/[id]/route.js&#45;&gt;node_modules/next -->
<g id="edge3" class="edge">
<title>app/(api)/satellites/[id]/route.js&#45;&gt;node_modules/next</title>
<path fill="none" stroke="#000000" stroke-opacity="0.200000" d="M110.28,-136.6C123.99,-135.95 139.97,-132.6 150,-122 167.58,-103.42 146.33,-87.76 158,-65 163.29,-54.68 172.32,-45.54 180.64,-38.61"/>
<polygon fill="#000000" fill-opacity="0.200000" stroke="#000000" stroke-opacity="0.200000" points="181.65,-40.49 185.05,-35.11 179.04,-37.19 181.65,-40.49"/>
</g>
<!-- app/(api)/satellites/route.js -->
<g id="node5" class="node">
<title>app/(api)/satellites/route.js</title>
<g id="a_node5"><a xlink:href="app/(api)/satellites/route.js" xlink:title="route.js">
<path fill="#ffffcc" stroke="black" d="M104.08,-109.88C104.08,-109.88 61.92,-109.88 61.92,-109.88 58.96,-109.88 56,-106.92 56,-103.96 56,-103.96 56,-98.04 56,-98.04 56,-95.08 58.96,-92.12 61.92,-92.12 61.92,-92.12 104.08,-92.12 104.08,-92.12 107.04,-92.12 110,-95.08 110,-98.04 110,-98.04 110,-103.96 110,-103.96 110,-106.92 107.04,-109.88 104.08,-109.88"/>
<text text-anchor="start" x="68" y="-97.33" font-family="Helvetica,sans-Serif" font-size="9.00">route.js</text>
</a>
</g>
</g>
<!-- app/(api)/satellites/route.js&#45;&gt;node_modules/next -->
<g id="edge4" class="edge">
<title>app/(api)/satellites/route.js&#45;&gt;node_modules/next</title>
<path fill="none" stroke="#000000" stroke-opacity="0.200000" d="M98.21,-91.68C118.65,-78.28 156.44,-53.49 179.75,-38.2"/>
<polygon fill="#000000" fill-opacity="0.200000" stroke="#000000" stroke-opacity="0.200000" points="180.78,-40.03 184.65,-34.99 178.48,-36.52 180.78,-40.03"/>
</g>
<!-- app/globals.css -->
<g id="node6" class="node">
<title>app/globals.css</title>
<g id="a_node6"><a xlink:href="app/globals.css" xlink:title="globals.css">
<path fill="#ffffcc" stroke="black" d="M225.83,-397.88C225.83,-397.88 175.92,-397.88 175.92,-397.88 172.96,-397.88 170,-394.92 170,-391.96 170,-391.96 170,-386.04 170,-386.04 170,-383.08 172.96,-380.12 175.92,-380.12 175.92,-380.12 225.83,-380.12 225.83,-380.12 228.79,-380.12 231.75,-383.08 231.75,-386.04 231.75,-386.04 231.75,-391.96 231.75,-391.96 231.75,-394.92 228.79,-397.88 225.83,-397.88"/>
<text text-anchor="start" x="178" y="-385.32" font-family="Helvetica,sans-Serif" font-size="9.00">globals.css</text>
</a>
</g>
</g>
<!-- app/layout.js -->
<g id="node7" class="node">
<title>app/layout.js</title>
<g id="a_node7"><a xlink:href="app/layout.js" xlink:title="layout.js">
<path fill="#ffffcc" stroke="black" d="M104.08,-397.88C104.08,-397.88 61.92,-397.88 61.92,-397.88 58.96,-397.88 56,-394.92 56,-391.96 56,-391.96 56,-386.04 56,-386.04 56,-383.08 58.96,-380.12 61.92,-380.12 61.92,-380.12 104.08,-380.12 104.08,-380.12 107.04,-380.12 110,-383.08 110,-386.04 110,-386.04 110,-391.96 110,-391.96 110,-394.92 107.04,-397.88 104.08,-397.88"/>
<text text-anchor="start" x="66.12" y="-385.32" font-family="Helvetica,sans-Serif" font-size="9.00">layout.js</text>
</a>
</g>
</g>
<!-- app/layout.js&#45;&gt;node_modules/next -->
<g id="edge6" class="edge">
<title>app/layout.js&#45;&gt;node_modules/next</title>
<path fill="none" stroke="#000000" stroke-opacity="0.200000" d="M110.18,-390.2C124.22,-389.32 140.54,-385.54 150,-374 160.89,-360.72 151.04,-80.7 158,-65 162.63,-54.54 171.42,-45.48 179.75,-38.64"/>
<polygon fill="#000000" fill-opacity="0.200000" stroke="#000000" stroke-opacity="0.200000" points="180.73,-40.53 184.19,-35.2 178.16,-37.21 180.73,-40.53"/>
</g>
<!-- app/layout.js&#45;&gt;app/globals.css -->
<g id="edge5" class="edge">
<title>app/layout.js&#45;&gt;app/globals.css</title>
<path fill="none" stroke="#000000" stroke-width="2" stroke-opacity="0.200000" d="M110.29,-389C125.17,-389 144.06,-389 160.65,-389"/>
<polygon fill="#000000" fill-opacity="0.200000" stroke="#000000" stroke-width="2" stroke-opacity="0.200000" points="160.56,-391.1 166.56,-389 160.56,-386.9 160.56,-391.1"/>
</g>
<!-- app/page.js -->
<g id="node8" class="node">
<title>app/page.js</title>
<g id="a_node8"><a xlink:href="app/page.js" xlink:title="page.js">
<path fill="#ffffcc" stroke="black" d="M104.08,-367.88C104.08,-367.88 61.92,-367.88 61.92,-367.88 58.96,-367.88 56,-364.92 56,-361.96 56,-361.96 56,-356.04 56,-356.04 56,-353.08 58.96,-350.12 61.92,-350.12 61.92,-350.12 104.08,-350.12 104.08,-350.12 107.04,-350.12 110,-353.08 110,-356.04 110,-356.04 110,-361.96 110,-361.96 110,-364.92 107.04,-367.88 104.08,-367.88"/>
<text text-anchor="start" x="68" y="-355.32" font-family="Helvetica,sans-Serif" font-size="9.00">page.js</text>
</a>
</g>
</g>
<!-- app/page.js&#45;&gt;node_modules/next -->
<g id="edge8" class="edge">
<title>app/page.js&#45;&gt;node_modules/next</title>
<path fill="none" stroke="#000000" stroke-opacity="0.200000" d="M91.1,-349.88C105.4,-330.91 137.39,-285.24 150,-241 160.73,-203.35 141.79,-100.64 158,-65 162.73,-54.59 171.53,-45.53 179.84,-38.68"/>
<polygon fill="#000000" fill-opacity="0.200000" stroke="#000000" stroke-opacity="0.200000" points="180.83,-40.58 184.27,-35.23 178.24,-37.26 180.83,-40.58"/>
</g>
<!-- app/page.module.css -->
<g id="node9" class="node">
<title>app/page.module.css</title>
<g id="a_node9"><a xlink:href="app/page.module.css" xlink:title="page.module.css">
<path fill="#ffffcc" stroke="black" d="M237.83,-367.88C237.83,-367.88 163.92,-367.88 163.92,-367.88 160.96,-367.88 158,-364.92 158,-361.96 158,-361.96 158,-356.04 158,-356.04 158,-353.08 160.96,-350.12 163.92,-350.12 163.92,-350.12 237.83,-350.12 237.83,-350.12 240.79,-350.12 243.75,-353.08 243.75,-356.04 243.75,-356.04 243.75,-361.96 243.75,-361.96 243.75,-364.92 240.79,-367.88 237.83,-367.88"/>
<text text-anchor="start" x="166" y="-355.32" font-family="Helvetica,sans-Serif" font-size="9.00">page.module.css</text>
</a>
</g>
</g>
<!-- app/page.js&#45;&gt;app/page.module.css -->
<g id="edge7" class="edge">
<title>app/page.js&#45;&gt;app/page.module.css</title>
<path fill="none" stroke="#000000" stroke-width="2" stroke-opacity="0.200000" d="M110.29,-359C121.8,-359 135.7,-359 149.09,-359"/>
<polygon fill="#000000" fill-opacity="0.200000" stroke="#000000" stroke-width="2" stroke-opacity="0.200000" points="148.75,-361.1 154.75,-359 148.75,-356.9 148.75,-361.1"/>
</g>
</g>
</svg>
