<?xml version="1.0" encoding="UTF-8" standalone="no"?>
<!DOCTYPE svg PUBLIC "-//W3C//DTD SVG 1.1//EN"
 "http://www.w3.org/Graphics/SVG/1.1/DTD/svg11.dtd">
<!-- Generated by graphviz version 9.0.0 (20230911.1827)
 -->
<!-- Title: dependency&#45;cruiser output Pages: 1 -->
<svg width="571pt" height="526pt"
 viewBox="0.00 0.00 570.50 526.00" xmlns="http://www.w3.org/2000/svg" xmlns:xlink="http://www.w3.org/1999/xlink">
<g id="graph0" class="graph" transform="scale(1 1) rotate(0) translate(4 522)">
<title>dependency&#45;cruiser output</title>
<polygon fill="white" stroke="none" points="-4,4 -4,-522 566.5,-522 566.5,4 -4,4"/>
<g id="clust1" class="cluster">
<title>cluster_app</title>
<path fill="#ffffff" stroke="black" stroke-width="2" d="M20,-98C20,-98 542.5,-98 542.5,-98 548.5,-98 554.5,-104 554.5,-110 554.5,-110 554.5,-498 554.5,-498 554.5,-504 548.5,-510 542.5,-510 542.5,-510 20,-510 20,-510 14,-510 8,-504 8,-498 8,-498 8,-110 8,-110 8,-104 14,-98 20,-98"/>
<text text-anchor="middle" x="281.25" y="-497.45" font-family="Helvetica,sans-Serif" font-weight="bold" font-size="9.00">app</text>
</g>
<g id="clust2" class="cluster">
<title>cluster_app/api</title>
<path fill="#ffffff" stroke="black" stroke-width="2" d="M95.75,-106C95.75,-106 534.5,-106 534.5,-106 540.5,-106 546.5,-112 546.5,-118 546.5,-118 546.5,-472 546.5,-472 546.5,-478 540.5,-484 534.5,-484 534.5,-484 95.75,-484 95.75,-484 89.75,-484 83.75,-478 83.75,-472 83.75,-472 83.75,-118 83.75,-118 83.75,-112 89.75,-106 95.75,-106"/>
<text text-anchor="middle" x="315.12" y="-471.45" font-family="Helvetica,sans-Serif" font-weight="bold" font-size="9.00">api</text>
</g>
<g id="clust3" class="cluster">
<title>cluster_app/api/satellites</title>
<path fill="#ffffff" stroke="black" stroke-width="2" d="M179.5,-114C179.5,-114 526.5,-114 526.5,-114 532.5,-114 538.5,-120 538.5,-126 538.5,-126 538.5,-446 538.5,-446 538.5,-452 532.5,-458 526.5,-458 526.5,-458 179.5,-458 179.5,-458 173.5,-458 167.5,-452 167.5,-446 167.5,-446 167.5,-126 167.5,-126 167.5,-120 173.5,-114 179.5,-114"/>
<text text-anchor="middle" x="353" y="-445.45" font-family="Helvetica,sans-Serif" font-weight="bold" font-size="9.00">satellites</text>
</g>
<g id="clust4" class="cluster">
<title>cluster_app/api/satellites/id</title>
<path fill="#ffffff" stroke="black" stroke-width="2" d="M249.5,-148C249.5,-148 518.5,-148 518.5,-148 524.5,-148 530.5,-154 530.5,-160 530.5,-160 530.5,-394 530.5,-394 530.5,-400 524.5,-406 518.5,-406 518.5,-406 249.5,-406 249.5,-406 243.5,-406 237.5,-400 237.5,-394 237.5,-394 237.5,-160 237.5,-160 237.5,-154 243.5,-148 249.5,-148"/>
<text text-anchor="middle" x="384" y="-393.45" font-family="Helvetica,sans-Serif" font-weight="bold" font-size="9.00">id</text>
</g>
<g id="clust5" class="cluster">
<title>cluster_app/api/satellites/id/details</title>
<path fill="#ffffff" stroke="black" stroke-width="2" d="M319.5,-182C319.5,-182 510.5,-182 510.5,-182 516.5,-182 522.5,-188 522.5,-194 522.5,-194 522.5,-282 522.5,-282 522.5,-288 516.5,-294 510.5,-294 510.5,-294 319.5,-294 319.5,-294 313.5,-294 307.5,-288 307.5,-282 307.5,-282 307.5,-194 307.5,-194 307.5,-188 313.5,-182 319.5,-182"/>
<text text-anchor="middle" x="415" y="-281.45" font-family="Helvetica,sans-Serif" font-weight="bold" font-size="9.00">details</text>
</g>
<g id="clust6" class="cluster">
<title>cluster_app/api/satellites/id/details/detailId</title>
<path fill="#ffffff" stroke="black" stroke-width="2" d="M389.5,-190C389.5,-190 502.5,-190 502.5,-190 508.5,-190 514.5,-196 514.5,-202 514.5,-202 514.5,-230 514.5,-230 514.5,-236 508.5,-242 502.5,-242 502.5,-242 389.5,-242 389.5,-242 383.5,-242 377.5,-236 377.5,-230 377.5,-230 377.5,-202 377.5,-202 377.5,-196 383.5,-190 389.5,-190"/>
<text text-anchor="middle" x="446" y="-229.45" font-family="Helvetica,sans-Serif" font-weight="bold" font-size="9.00">detailId</text>
</g>
<g id="clust7" class="cluster">
<title>cluster_node_modules</title>
<path fill="#ffffff" stroke="black" stroke-width="2" d="M90,-8C90,-8 147.5,-8 147.5,-8 153.5,-8 159.5,-14 159.5,-20 159.5,-20 159.5,-78 159.5,-78 159.5,-84 153.5,-90 147.5,-90 147.5,-90 90,-90 90,-90 84,-90 78,-84 78,-78 78,-78 78,-20 78,-20 78,-14 84,-8 90,-8"/>
<text text-anchor="middle" x="118.75" y="-77.45" font-family="Helvetica,sans-Serif" font-weight="bold" font-size="9.00">node_modules</text>
</g>
<!-- app/api/index.js -->
<g id="node1" class="node">
<title>app/api/index.js</title>
<g id="a_node1"><a xlink:href="app/api/index.js" xlink:title="index.js">
<path fill="#ffffcc" stroke="black" d="M139.83,-135.88C139.83,-135.88 97.67,-135.88 97.67,-135.88 94.71,-135.88 91.75,-132.92 91.75,-129.96 91.75,-129.96 91.75,-124.04 91.75,-124.04 91.75,-121.08 94.71,-118.12 97.67,-118.12 97.67,-118.12 139.83,-118.12 139.83,-118.12 142.79,-118.12 145.75,-121.08 145.75,-124.04 145.75,-124.04 145.75,-129.96 145.75,-129.96 145.75,-132.92 142.79,-135.88 139.83,-135.88"/>
<text text-anchor="start" x="103" y="-123.33" font-family="Helvetica,sans-Serif" font-size="9.00">index.js</text>
</a>
</g>
</g>
<!-- app/api/satellites/index.js -->
<g id="node2" class="node">
<title>app/api/satellites/index.js</title>
<g id="a_node2"><a xlink:href="app/api/satellites/index.js" xlink:title="index.js">
<path fill="#ffffcc" stroke="black" d="M223.58,-216.88C223.58,-216.88 181.42,-216.88 181.42,-216.88 178.46,-216.88 175.5,-213.92 175.5,-210.96 175.5,-210.96 175.5,-205.04 175.5,-205.04 175.5,-202.08 178.46,-199.12 181.42,-199.12 181.42,-199.12 223.58,-199.12 223.58,-199.12 226.54,-199.12 229.5,-202.08 229.5,-205.04 229.5,-205.04 229.5,-210.96 229.5,-210.96 229.5,-213.92 226.54,-216.88 223.58,-216.88"/>
<text text-anchor="start" x="186.75" y="-204.32" font-family="Helvetica,sans-Serif" font-size="9.00">index.js</text>
</a>
</g>
</g>
<!-- app/api/index.js&#45;&gt;app/api/satellites/index.js -->
<g id="edge1" class="edge">
<title>app/api/index.js&#45;&gt;app/api/satellites/index.js</title>
<path fill="none" stroke="#000000" stroke-width="2" stroke-opacity="0.200000" d="M129.13,-136.29C143.05,-150.09 169.34,-176.13 186.11,-192.75"/>
<polygon fill="#000000" fill-opacity="0.200000" stroke="#000000" stroke-width="2" stroke-opacity="0.200000" points="184.34,-193.95 190.08,-196.69 187.3,-190.97 184.34,-193.95"/>
</g>
<!-- app/api/satellites/get.js -->
<g id="node3" class="node">
<title>app/api/satellites/get.js</title>
<g id="a_node3"><a xlink:href="app/api/satellites/get.js" xlink:title="get.js">
<path fill="#ffffcc" stroke="black" d="M293.58,-139.88C293.58,-139.88 251.42,-139.88 251.42,-139.88 248.46,-139.88 245.5,-136.92 245.5,-133.96 245.5,-133.96 245.5,-128.04 245.5,-128.04 245.5,-125.08 248.46,-122.12 251.42,-122.12 251.42,-122.12 293.58,-122.12 293.58,-122.12 296.54,-122.12 299.5,-125.08 299.5,-128.04 299.5,-128.04 299.5,-133.96 299.5,-133.96 299.5,-136.92 296.54,-139.88 293.58,-139.88"/>
<text text-anchor="start" x="261.62" y="-127.33" font-family="Helvetica,sans-Serif" font-size="9.00">get.js</text>
</a>
</g>
</g>
<!-- app/api/satellites/index.js&#45;&gt;app/api/satellites/get.js -->
<g id="edge10" class="edge">
<title>app/api/satellites/index.js&#45;&gt;app/api/satellites/get.js</title>
<path fill="none" stroke="#000000" stroke-width="2" stroke-opacity="0.200000" d="M206.17,-199.05C210.6,-185.59 220.69,-160.14 237.5,-145 237.64,-144.87 237.79,-144.74 237.93,-144.62"/>
<polygon fill="#000000" fill-opacity="0.200000" stroke="#000000" stroke-width="2" stroke-opacity="0.200000" points="238.9,-146.5 242.65,-141.36 236.52,-143.04 238.9,-146.5"/>
</g>
<!-- app/api/satellites/id/index.js -->
<g id="node10" class="node">
<title>app/api/satellites/id/index.js</title>
<g id="a_node10"><a xlink:href="app/api/satellites/id/index.js" xlink:title="index.js">
<path fill="#ffffcc" stroke="black" d="M293.58,-293.88C293.58,-293.88 251.42,-293.88 251.42,-293.88 248.46,-293.88 245.5,-290.92 245.5,-287.96 245.5,-287.96 245.5,-282.04 245.5,-282.04 245.5,-279.08 248.46,-276.12 251.42,-276.12 251.42,-276.12 293.58,-276.12 293.58,-276.12 296.54,-276.12 299.5,-279.08 299.5,-282.04 299.5,-282.04 299.5,-287.96 299.5,-287.96 299.5,-290.92 296.54,-293.88 293.58,-293.88"/>
<text text-anchor="start" x="256.75" y="-281.32" font-family="Helvetica,sans-Serif" font-size="9.00">index.js</text>
</a>
</g>
</g>
<!-- app/api/satellites/index.js&#45;&gt;app/api/satellites/id/index.js -->
<g id="edge11" class="edge">
<title>app/api/satellites/index.js&#45;&gt;app/api/satellites/id/index.js</title>
<path fill="none" stroke="#000000" stroke-width="2" stroke-opacity="0.200000" d="M206.08,-217.15C210.4,-230.89 220.34,-256.84 237.5,-272 237.64,-272.13 237.79,-272.25 237.93,-272.37"/>
<polygon fill="#000000" fill-opacity="0.200000" stroke="#000000" stroke-width="2" stroke-opacity="0.200000" points="236.46,-273.92 242.62,-275.5 238.79,-270.42 236.46,-273.92"/>
</g>
<!-- app/api/satellites/post.js -->
<g id="node13" class="node">
<title>app/api/satellites/post.js</title>
<g id="a_node13"><a xlink:href="app/api/satellites/post.js" xlink:title="post.js">
<path fill="#ffffcc" stroke="black" d="M293.58,-431.88C293.58,-431.88 251.42,-431.88 251.42,-431.88 248.46,-431.88 245.5,-428.92 245.5,-425.96 245.5,-425.96 245.5,-420.04 245.5,-420.04 245.5,-417.08 248.46,-414.12 251.42,-414.12 251.42,-414.12 293.58,-414.12 293.58,-414.12 296.54,-414.12 299.5,-417.08 299.5,-420.04 299.5,-420.04 299.5,-425.96 299.5,-425.96 299.5,-428.92 296.54,-431.88 293.58,-431.88"/>
<text text-anchor="start" x="259.38" y="-419.32" font-family="Helvetica,sans-Serif" font-size="9.00">post.js</text>
</a>
</g>
</g>
<!-- app/api/satellites/index.js&#45;&gt;app/api/satellites/post.js -->
<g id="edge12" class="edge">
<title>app/api/satellites/index.js&#45;&gt;app/api/satellites/post.js</title>
<path fill="none" stroke="#000000" stroke-width="2" stroke-opacity="0.200000" d="M203.89,-217C205.56,-252 213.21,-378.58 237.5,-409 237.76,-409.32 238.03,-409.64 238.3,-409.95"/>
<polygon fill="#000000" fill-opacity="0.200000" stroke="#000000" stroke-width="2" stroke-opacity="0.200000" points="236.75,-411.39 242.73,-413.54 239.39,-408.13 236.75,-411.39"/>
</g>
<!-- app/api/satellites/id/delete.js -->
<g id="node4" class="node">
<title>app/api/satellites/id/delete.js</title>
<g id="a_node4"><a xlink:href="app/api/satellites/id/delete.js" xlink:title="delete.js">
<path fill="#ffffcc" stroke="black" d="M363.58,-173.88C363.58,-173.88 321.42,-173.88 321.42,-173.88 318.46,-173.88 315.5,-170.92 315.5,-167.96 315.5,-167.96 315.5,-162.04 315.5,-162.04 315.5,-159.08 318.46,-156.12 321.42,-156.12 321.42,-156.12 363.58,-156.12 363.58,-156.12 366.54,-156.12 369.5,-159.08 369.5,-162.04 369.5,-162.04 369.5,-167.96 369.5,-167.96 369.5,-170.92 366.54,-173.88 363.58,-173.88"/>
<text text-anchor="start" x="325.25" y="-161.32" font-family="Helvetica,sans-Serif" font-size="9.00">delete.js</text>
</a>
</g>
</g>
<!-- app/api/satellites/id/details/detailId/get.js -->
<g id="node5" class="node">
<title>app/api/satellites/id/details/detailId/get.js</title>
<g id="a_node5"><a xlink:href="app/api/satellites/id/details/detailId/get.js" xlink:title="get.js">
<path fill="#ffffcc" stroke="black" d="M500.58,-215.88C500.58,-215.88 458.42,-215.88 458.42,-215.88 455.46,-215.88 452.5,-212.92 452.5,-209.96 452.5,-209.96 452.5,-204.04 452.5,-204.04 452.5,-201.08 455.46,-198.12 458.42,-198.12 458.42,-198.12 500.58,-198.12 500.58,-198.12 503.54,-198.12 506.5,-201.08 506.5,-204.04 506.5,-204.04 506.5,-209.96 506.5,-209.96 506.5,-212.92 503.54,-215.88 500.58,-215.88"/>
<text text-anchor="start" x="468.62" y="-203.32" font-family="Helvetica,sans-Serif" font-size="9.00">get.js</text>
</a>
</g>
</g>
<!-- app/api/satellites/id/details/detailId/index.js -->
<g id="node6" class="node">
<title>app/api/satellites/id/details/detailId/index.js</title>
<g id="a_node6"><a xlink:href="app/api/satellites/id/details/detailId/index.js" xlink:title="index.js">
<path fill="#ffffcc" stroke="black" d="M433.58,-215.88C433.58,-215.88 391.42,-215.88 391.42,-215.88 388.46,-215.88 385.5,-212.92 385.5,-209.96 385.5,-209.96 385.5,-204.04 385.5,-204.04 385.5,-201.08 388.46,-198.12 391.42,-198.12 391.42,-198.12 433.58,-198.12 433.58,-198.12 436.54,-198.12 439.5,-201.08 439.5,-204.04 439.5,-204.04 439.5,-209.96 439.5,-209.96 439.5,-212.92 436.54,-215.88 433.58,-215.88"/>
<text text-anchor="start" x="396.75" y="-203.32" font-family="Helvetica,sans-Serif" font-size="9.00">index.js</text>
</a>
</g>
</g>
<!-- app/api/satellites/id/details/detailId/index.js&#45;&gt;app/api/satellites/id/details/detailId/get.js -->
<g id="edge2" class="edge">
<title>app/api/satellites/id/details/detailId/index.js&#45;&gt;app/api/satellites/id/details/detailId/get.js</title>
<path fill="none" stroke="#000000" stroke-width="2" stroke-opacity="0.200000" d="M439.94,-207C441.08,-207 442.24,-207 443.4,-207"/>
<polygon fill="#000000" fill-opacity="0.200000" stroke="#000000" stroke-width="2" stroke-opacity="0.200000" points="443.27,-209.1 449.27,-207 443.27,-204.9 443.27,-209.1"/>
</g>
<!-- app/api/satellites/id/details/get.js -->
<g id="node7" class="node">
<title>app/api/satellites/id/details/get.js</title>
<g id="a_node7"><a xlink:href="app/api/satellites/id/details/get.js" xlink:title="get.js">
<path fill="#ffffcc" stroke="black" d="M433.58,-267.88C433.58,-267.88 391.42,-267.88 391.42,-267.88 388.46,-267.88 385.5,-264.92 385.5,-261.96 385.5,-261.96 385.5,-256.04 385.5,-256.04 385.5,-253.08 388.46,-250.12 391.42,-250.12 391.42,-250.12 433.58,-250.12 433.58,-250.12 436.54,-250.12 439.5,-253.08 439.5,-256.04 439.5,-256.04 439.5,-261.96 439.5,-261.96 439.5,-264.92 436.54,-267.88 433.58,-267.88"/>
<text text-anchor="start" x="401.62" y="-255.32" font-family="Helvetica,sans-Serif" font-size="9.00">get.js</text>
</a>
</g>
</g>
<!-- app/api/satellites/id/details/index.js -->
<g id="node8" class="node">
<title>app/api/satellites/id/details/index.js</title>
<g id="a_node8"><a xlink:href="app/api/satellites/id/details/index.js" xlink:title="index.js">
<path fill="#ffffcc" stroke="black" d="M363.58,-267.88C363.58,-267.88 321.42,-267.88 321.42,-267.88 318.46,-267.88 315.5,-264.92 315.5,-261.96 315.5,-261.96 315.5,-256.04 315.5,-256.04 315.5,-253.08 318.46,-250.12 321.42,-250.12 321.42,-250.12 363.58,-250.12 363.58,-250.12 366.54,-250.12 369.5,-253.08 369.5,-256.04 369.5,-256.04 369.5,-261.96 369.5,-261.96 369.5,-264.92 366.54,-267.88 363.58,-267.88"/>
<text text-anchor="start" x="326.75" y="-255.32" font-family="Helvetica,sans-Serif" font-size="9.00">index.js</text>
</a>
</g>
</g>
<!-- app/api/satellites/id/details/index.js&#45;&gt;app/api/satellites/id/details/detailId/index.js -->
<g id="edge3" class="edge">
<title>app/api/satellites/id/details/index.js&#45;&gt;app/api/satellites/id/details/detailId/index.js</title>
<path fill="none" stroke="#000000" stroke-width="2" stroke-opacity="0.200000" d="M365.5,-249.77C366.97,-248.64 368.33,-247.39 369.5,-246 377.31,-236.77 369.24,-228.83 377.5,-220 377.63,-219.86 377.77,-219.71 377.91,-219.57"/>
<polygon fill="#000000" fill-opacity="0.200000" stroke="#000000" stroke-width="2" stroke-opacity="0.200000" points="379.1,-221.31 382.65,-216.03 376.59,-217.94 379.1,-221.31"/>
</g>
<!-- app/api/satellites/id/details/index.js&#45;&gt;app/api/satellites/id/details/get.js -->
<g id="edge4" class="edge">
<title>app/api/satellites/id/details/index.js&#45;&gt;app/api/satellites/id/details/get.js</title>
<path fill="none" stroke="#000000" stroke-width="2" stroke-opacity="0.200000" d="M369.99,-259C372.2,-259 374.47,-259 376.74,-259"/>
<polygon fill="#000000" fill-opacity="0.200000" stroke="#000000" stroke-width="2" stroke-opacity="0.200000" points="376.4,-261.1 382.4,-259 376.4,-256.9 376.4,-261.1"/>
</g>
<!-- app/api/satellites/id/get.js -->
<g id="node9" class="node">
<title>app/api/satellites/id/get.js</title>
<g id="a_node9"><a xlink:href="app/api/satellites/id/get.js" xlink:title="get.js">
<path fill="#ffffcc" stroke="black" d="M363.58,-319.88C363.58,-319.88 321.42,-319.88 321.42,-319.88 318.46,-319.88 315.5,-316.92 315.5,-313.96 315.5,-313.96 315.5,-308.04 315.5,-308.04 315.5,-305.08 318.46,-302.12 321.42,-302.12 321.42,-302.12 363.58,-302.12 363.58,-302.12 366.54,-302.12 369.5,-305.08 369.5,-308.04 369.5,-308.04 369.5,-313.96 369.5,-313.96 369.5,-316.92 366.54,-319.88 363.58,-319.88"/>
<text text-anchor="start" x="331.62" y="-307.32" font-family="Helvetica,sans-Serif" font-size="9.00">get.js</text>
</a>
</g>
</g>
<!-- app/api/satellites/id/index.js&#45;&gt;app/api/satellites/id/delete.js -->
<g id="edge5" class="edge">
<title>app/api/satellites/id/index.js&#45;&gt;app/api/satellites/id/delete.js</title>
<path fill="none" stroke="#000000" stroke-width="2" stroke-opacity="0.200000" d="M296.3,-275.63C297.51,-274.54 298.59,-273.34 299.5,-272 311.15,-254.84 295.23,-195.72 307.5,-179 307.75,-178.65 308.02,-178.31 308.29,-177.98"/>
<polygon fill="#000000" fill-opacity="0.200000" stroke="#000000" stroke-width="2" stroke-opacity="0.200000" points="309.63,-179.6 312.89,-174.14 306.94,-176.38 309.63,-179.6"/>
</g>
<!-- app/api/satellites/id/index.js&#45;&gt;app/api/satellites/id/details/index.js -->
<g id="edge6" class="edge">
<title>app/api/satellites/id/index.js&#45;&gt;app/api/satellites/id/details/index.js</title>
<path fill="none" stroke="#000000" stroke-width="2" stroke-opacity="0.200000" d="M297.67,-275.76C301.37,-274.34 305.25,-272.86 309.1,-271.39"/>
<polygon fill="#000000" fill-opacity="0.200000" stroke="#000000" stroke-width="2" stroke-opacity="0.200000" points="309.73,-273.4 314.58,-269.29 308.23,-269.47 309.73,-273.4"/>
</g>
<!-- app/api/satellites/id/index.js&#45;&gt;app/api/satellites/id/get.js -->
<g id="edge7" class="edge">
<title>app/api/satellites/id/index.js&#45;&gt;app/api/satellites/id/get.js</title>
<path fill="none" stroke="#000000" stroke-width="2" stroke-opacity="0.200000" d="M297.67,-294.24C301.37,-295.66 305.25,-297.14 309.1,-298.61"/>
<polygon fill="#000000" fill-opacity="0.200000" stroke="#000000" stroke-width="2" stroke-opacity="0.200000" points="308.23,-300.53 314.58,-300.71 309.73,-296.6 308.23,-300.53"/>
</g>
<!-- app/api/satellites/id/patch.js -->
<g id="node11" class="node">
<title>app/api/satellites/id/patch.js</title>
<g id="a_node11"><a xlink:href="app/api/satellites/id/patch.js" xlink:title="patch.js">
<path fill="#ffffcc" stroke="black" d="M363.58,-349.88C363.58,-349.88 321.42,-349.88 321.42,-349.88 318.46,-349.88 315.5,-346.92 315.5,-343.96 315.5,-343.96 315.5,-338.04 315.5,-338.04 315.5,-335.08 318.46,-332.12 321.42,-332.12 321.42,-332.12 363.58,-332.12 363.58,-332.12 366.54,-332.12 369.5,-335.08 369.5,-338.04 369.5,-338.04 369.5,-343.96 369.5,-343.96 369.5,-346.92 366.54,-349.88 363.58,-349.88"/>
<text text-anchor="start" x="326.75" y="-337.32" font-family="Helvetica,sans-Serif" font-size="9.00">patch.js</text>
</a>
</g>
</g>
<!-- app/api/satellites/id/index.js&#45;&gt;app/api/satellites/id/patch.js -->
<g id="edge8" class="edge">
<title>app/api/satellites/id/index.js&#45;&gt;app/api/satellites/id/patch.js</title>
<path fill="none" stroke="#000000" stroke-width="2" stroke-opacity="0.200000" d="M295.53,-294.2C296.99,-295.34 298.34,-296.6 299.5,-298 307.77,-307.96 299,-316.24 307.5,-326 307.76,-326.3 308.04,-326.6 308.32,-326.89"/>
<polygon fill="#000000" fill-opacity="0.200000" stroke="#000000" stroke-width="2" stroke-opacity="0.200000" points="306.63,-328.24 312.63,-330.33 309.25,-324.95 306.63,-328.24"/>
</g>
<!-- app/api/satellites/id/put.js -->
<g id="node12" class="node">
<title>app/api/satellites/id/put.js</title>
<g id="a_node12"><a xlink:href="app/api/satellites/id/put.js" xlink:title="put.js">
<path fill="#ffffcc" stroke="black" d="M363.58,-379.88C363.58,-379.88 321.42,-379.88 321.42,-379.88 318.46,-379.88 315.5,-376.92 315.5,-373.96 315.5,-373.96 315.5,-368.04 315.5,-368.04 315.5,-365.08 318.46,-362.12 321.42,-362.12 321.42,-362.12 363.58,-362.12 363.58,-362.12 366.54,-362.12 369.5,-365.08 369.5,-368.04 369.5,-368.04 369.5,-373.96 369.5,-373.96 369.5,-376.92 366.54,-379.88 363.58,-379.88"/>
<text text-anchor="start" x="331.62" y="-367.32" font-family="Helvetica,sans-Serif" font-size="9.00">put.js</text>
</a>
</g>
</g>
<!-- app/api/satellites/id/index.js&#45;&gt;app/api/satellites/id/put.js -->
<g id="edge9" class="edge">
<title>app/api/satellites/id/index.js&#45;&gt;app/api/satellites/id/put.js</title>
<path fill="none" stroke="#000000" stroke-width="2" stroke-opacity="0.200000" d="M295.76,-294.03C297.17,-295.21 298.44,-296.52 299.5,-298 314.66,-319.15 291.83,-335.22 307.5,-356 307.89,-356.52 308.31,-357.03 308.74,-357.51"/>
<polygon fill="#000000" fill-opacity="0.200000" stroke="#000000" stroke-width="2" stroke-opacity="0.200000" points="307.01,-358.81 312.98,-360.99 309.68,-355.56 307.01,-358.81"/>
</g>
<!-- app/index.js -->
<g id="node14" class="node">
<title>app/index.js</title>
<g id="a_node14"><a xlink:href="app/index.js" xlink:title="index.js">
<path fill="#ffffcc" stroke="black" d="M64.08,-123.88C64.08,-123.88 21.92,-123.88 21.92,-123.88 18.96,-123.88 16,-120.92 16,-117.96 16,-117.96 16,-112.04 16,-112.04 16,-109.08 18.96,-106.12 21.92,-106.12 21.92,-106.12 64.08,-106.12 64.08,-106.12 67.04,-106.12 70,-109.08 70,-112.04 70,-112.04 70,-117.96 70,-117.96 70,-120.92 67.04,-123.88 64.08,-123.88"/>
<text text-anchor="start" x="27.25" y="-111.33" font-family="Helvetica,sans-Serif" font-size="9.00">index.js</text>
</a>
</g>
</g>
<!-- app/index.js&#45;&gt;app/api/index.js -->
<g id="edge13" class="edge">
<title>app/index.js&#45;&gt;app/api/index.js</title>
<path fill="none" stroke="#000000" stroke-width="2" stroke-opacity="0.200000" d="M70.21,-119.26C74.34,-119.94 78.66,-120.64 82.95,-121.34"/>
<polygon fill="#000000" fill-opacity="0.200000" stroke="#000000" stroke-width="2" stroke-opacity="0.200000" points="82.38,-123.37 88.64,-122.26 83.05,-119.23 82.38,-123.37"/>
</g>
<!-- node_modules/body&#45;parser -->
<g id="node15" class="node">
<title>node_modules/body&#45;parser</title>
<g id="a_node15"><a xlink:href="https://www.npmjs.com/package/body-parser" xlink:title="body&#45;parser">
<polygon fill="#c40b0a" fill-opacity="0.101961" stroke="black" points="151.5,-63.88 87.97,-63.88 86,-61.9 86,-46.12 149.53,-46.12 151.5,-48.1 151.5,-63.88"/>
<polyline fill="none" stroke="black" points="149.53,-61.9 86,-61.9"/>
<polyline fill="none" stroke="black" points="149.53,-61.9 149.53,-46.12"/>
<polyline fill="none" stroke="black" points="149.53,-61.9 151.5,-63.88"/>
<text text-anchor="start" x="94" y="-51.33" font-family="Helvetica,sans-Serif" font-size="9.00" fill="#c40b0a">body&#45;parser</text>
</a>
</g>
</g>
<!-- app/index.js&#45;&gt;node_modules/body&#45;parser -->
<g id="edge14" class="edge">
<title>app/index.js&#45;&gt;node_modules/body&#45;parser</title>
<path fill="none" stroke="#000000" stroke-opacity="0.200000" d="M55.52,-105.62C67.72,-95.7 87.08,-79.95 100.97,-68.65"/>
<polygon fill="#000000" fill-opacity="0.200000" stroke="#000000" stroke-opacity="0.200000" points="102.05,-70.48 105.37,-65.07 99.4,-67.23 102.05,-70.48"/>
</g>
<!-- node_modules/express -->
<g id="node16" class="node">
<title>node_modules/express</title>
<g id="a_node16"><a xlink:href="https://www.npmjs.com/package/express" xlink:title="express">
<polygon fill="#c40b0a" fill-opacity="0.101961" stroke="black" points="145.75,-33.88 93.72,-33.88 91.75,-31.9 91.75,-16.12 143.78,-16.12 145.75,-18.1 145.75,-33.88"/>
<polyline fill="none" stroke="black" points="143.78,-31.9 91.75,-31.9"/>
<polyline fill="none" stroke="black" points="143.78,-31.9 143.78,-16.12"/>
<polyline fill="none" stroke="black" points="143.78,-31.9 145.75,-33.88"/>
<text text-anchor="start" x="102.62" y="-21.32" font-family="Helvetica,sans-Serif" font-size="9.00" fill="#c40b0a">express</text>
</a>
</g>
</g>
<!-- app/index.js&#45;&gt;node_modules/express -->
<g id="edge15" class="edge">
<title>app/index.js&#45;&gt;node_modules/express</title>
<path fill="none" stroke="#000000" stroke-opacity="0.200000" d="M45.77,-105.83C49.25,-90.21 58.39,-58.38 78,-40 80,-38.12 82.26,-36.48 84.66,-35.03"/>
<polygon fill="#000000" fill-opacity="0.200000" stroke="#000000" stroke-opacity="0.200000" points="85.52,-36.95 89.91,-32.35 83.61,-33.21 85.52,-36.95"/>
</g>
</g>
</svg>
