<?xml version="1.0" encoding="UTF-8" standalone="no"?>
<!DOCTYPE svg PUBLIC "-//W3C//DTD SVG 1.1//EN"
 "http://www.w3.org/Graphics/SVG/1.1/DTD/svg11.dtd">
<!-- Generated by graphviz version 9.0.0 (20230911.1827)
 -->
<!-- Title: dependency&#45;cruiser output Pages: 1 -->
<svg width="586pt" height="556pt"
 viewBox="0.00 0.00 585.50 556.00" xmlns="http://www.w3.org/2000/svg" xmlns:xlink="http://www.w3.org/1999/xlink">
<g id="graph0" class="graph" transform="scale(1 1) rotate(0) translate(4 552)">
<title>dependency&#45;cruiser output</title>
<polygon fill="white" stroke="none" points="-4,4 -4,-552 581.5,-552 581.5,4 -4,4"/>
<g id="clust1" class="cluster">
<title>cluster_app</title>
<path fill="#ffffff" stroke="black" stroke-width="2" d="M20,-128C20,-128 557.5,-128 557.5,-128 563.5,-128 569.5,-134 569.5,-140 569.5,-140 569.5,-528 569.5,-528 569.5,-534 563.5,-540 557.5,-540 557.5,-540 20,-540 20,-540 14,-540 8,-534 8,-528 8,-528 8,-140 8,-140 8,-134 14,-128 20,-128"/>
<text text-anchor="middle" x="288.75" y="-527.45" font-family="Helvetica,sans-Serif" font-weight="bold" font-size="9.00">app</text>
</g>
<g id="clust2" class="cluster">
<title>cluster_app/api</title>
<path fill="#ffffff" stroke="black" stroke-width="2" d="M103.25,-136C103.25,-136 549.5,-136 549.5,-136 555.5,-136 561.5,-142 561.5,-148 561.5,-148 561.5,-502 561.5,-502 561.5,-508 555.5,-514 549.5,-514 549.5,-514 103.25,-514 103.25,-514 97.25,-514 91.25,-508 91.25,-502 91.25,-502 91.25,-148 91.25,-148 91.25,-142 97.25,-136 103.25,-136"/>
<text text-anchor="middle" x="326.38" y="-501.45" font-family="Helvetica,sans-Serif" font-weight="bold" font-size="9.00">api</text>
</g>
<g id="clust3" class="cluster">
<title>cluster_app/api/satellites</title>
<path fill="#ffffff" stroke="black" stroke-width="2" d="M194.5,-144C194.5,-144 541.5,-144 541.5,-144 547.5,-144 553.5,-150 553.5,-156 553.5,-156 553.5,-476 553.5,-476 553.5,-482 547.5,-488 541.5,-488 541.5,-488 194.5,-488 194.5,-488 188.5,-488 182.5,-482 182.5,-476 182.5,-476 182.5,-156 182.5,-156 182.5,-150 188.5,-144 194.5,-144"/>
<text text-anchor="middle" x="368" y="-475.45" font-family="Helvetica,sans-Serif" font-weight="bold" font-size="9.00">satellites</text>
</g>
<g id="clust4" class="cluster">
<title>cluster_app/api/satellites/id</title>
<path fill="#ffffff" stroke="black" stroke-width="2" d="M264.5,-178C264.5,-178 533.5,-178 533.5,-178 539.5,-178 545.5,-184 545.5,-190 545.5,-190 545.5,-424 545.5,-424 545.5,-430 539.5,-436 533.5,-436 533.5,-436 264.5,-436 264.5,-436 258.5,-436 252.5,-430 252.5,-424 252.5,-424 252.5,-190 252.5,-190 252.5,-184 258.5,-178 264.5,-178"/>
<text text-anchor="middle" x="399" y="-423.45" font-family="Helvetica,sans-Serif" font-weight="bold" font-size="9.00">id</text>
</g>
<g id="clust5" class="cluster">
<title>cluster_app/api/satellites/id/details</title>
<path fill="#ffffff" stroke="black" stroke-width="2" d="M334.5,-212C334.5,-212 525.5,-212 525.5,-212 531.5,-212 537.5,-218 537.5,-224 537.5,-224 537.5,-312 537.5,-312 537.5,-318 531.5,-324 525.5,-324 525.5,-324 334.5,-324 334.5,-324 328.5,-324 322.5,-318 322.5,-312 322.5,-312 322.5,-224 322.5,-224 322.5,-218 328.5,-212 334.5,-212"/>
<text text-anchor="middle" x="430" y="-311.45" font-family="Helvetica,sans-Serif" font-weight="bold" font-size="9.00">details</text>
</g>
<g id="clust6" class="cluster">
<title>cluster_app/api/satellites/id/details/detailId</title>
<path fill="#ffffff" stroke="black" stroke-width="2" d="M404.5,-220C404.5,-220 517.5,-220 517.5,-220 523.5,-220 529.5,-226 529.5,-232 529.5,-232 529.5,-260 529.5,-260 529.5,-266 523.5,-272 517.5,-272 517.5,-272 404.5,-272 404.5,-272 398.5,-272 392.5,-266 392.5,-260 392.5,-260 392.5,-232 392.5,-232 392.5,-226 398.5,-220 404.5,-220"/>
<text text-anchor="middle" x="461" y="-259.45" font-family="Helvetica,sans-Serif" font-weight="bold" font-size="9.00">detailId</text>
</g>
<g id="clust7" class="cluster">
<title>cluster_node_modules</title>
<path fill="#ffffff" stroke="black" stroke-width="2" d="M90,-8C90,-8 162.5,-8 162.5,-8 168.5,-8 174.5,-14 174.5,-20 174.5,-20 174.5,-108 174.5,-108 174.5,-114 168.5,-120 162.5,-120 162.5,-120 90,-120 90,-120 84,-120 78,-114 78,-108 78,-108 78,-20 78,-20 78,-14 84,-8 90,-8"/>
<text text-anchor="middle" x="126.25" y="-107.45" font-family="Helvetica,sans-Serif" font-weight="bold" font-size="9.00">node_modules</text>
</g>
<!-- app/api/index.js -->
<g id="node1" class="node">
<title>app/api/index.js</title>
<g id="a_node1"><a xlink:href="app/api/index.js" xlink:title="index.js">
<path fill="#ffffcc" stroke="black" d="M147.33,-165.88C147.33,-165.88 105.17,-165.88 105.17,-165.88 102.21,-165.88 99.25,-162.92 99.25,-159.96 99.25,-159.96 99.25,-154.04 99.25,-154.04 99.25,-151.08 102.21,-148.12 105.17,-148.12 105.17,-148.12 147.33,-148.12 147.33,-148.12 150.29,-148.12 153.25,-151.08 153.25,-154.04 153.25,-154.04 153.25,-159.96 153.25,-159.96 153.25,-162.92 150.29,-165.88 147.33,-165.88"/>
<text text-anchor="start" x="110.5" y="-153.32" font-family="Helvetica,sans-Serif" font-size="9.00">index.js</text>
</a>
</g>
</g>
<!-- app/api/satellites/index.js -->
<g id="node2" class="node">
<title>app/api/satellites/index.js</title>
<g id="a_node2"><a xlink:href="app/api/satellites/index.js" xlink:title="index.js">
<path fill="#ffffcc" stroke="black" d="M238.58,-246.88C238.58,-246.88 196.42,-246.88 196.42,-246.88 193.46,-246.88 190.5,-243.92 190.5,-240.96 190.5,-240.96 190.5,-235.04 190.5,-235.04 190.5,-232.08 193.46,-229.12 196.42,-229.12 196.42,-229.12 238.58,-229.12 238.58,-229.12 241.54,-229.12 244.5,-232.08 244.5,-235.04 244.5,-235.04 244.5,-240.96 244.5,-240.96 244.5,-243.92 241.54,-246.88 238.58,-246.88"/>
<text text-anchor="start" x="201.75" y="-234.32" font-family="Helvetica,sans-Serif" font-size="9.00">index.js</text>
</a>
</g>
</g>
<!-- app/api/index.js&#45;&gt;app/api/satellites/index.js -->
<g id="edge1" class="edge">
<title>app/api/index.js&#45;&gt;app/api/satellites/index.js</title>
<path fill="none" stroke="#000000" stroke-width="2" stroke-opacity="0.200000" d="M137.49,-166.29C152.82,-180.21 181.9,-206.6 200.18,-223.19"/>
<polygon fill="#000000" fill-opacity="0.200000" stroke="#000000" stroke-width="2" stroke-opacity="0.200000" points="198.29,-224.3 204.14,-226.78 201.11,-221.19 198.29,-224.3"/>
</g>
<!-- app/api/satellites/get.js -->
<g id="node3" class="node">
<title>app/api/satellites/get.js</title>
<g id="a_node3"><a xlink:href="app/api/satellites/get.js" xlink:title="get.js">
<path fill="#ffffcc" stroke="black" d="M308.58,-169.88C308.58,-169.88 266.42,-169.88 266.42,-169.88 263.46,-169.88 260.5,-166.92 260.5,-163.96 260.5,-163.96 260.5,-158.04 260.5,-158.04 260.5,-155.08 263.46,-152.12 266.42,-152.12 266.42,-152.12 308.58,-152.12 308.58,-152.12 311.54,-152.12 314.5,-155.08 314.5,-158.04 314.5,-158.04 314.5,-163.96 314.5,-163.96 314.5,-166.92 311.54,-169.88 308.58,-169.88"/>
<text text-anchor="start" x="276.62" y="-157.32" font-family="Helvetica,sans-Serif" font-size="9.00">get.js</text>
</a>
</g>
</g>
<!-- app/api/satellites/index.js&#45;&gt;app/api/satellites/get.js -->
<g id="edge10" class="edge">
<title>app/api/satellites/index.js&#45;&gt;app/api/satellites/get.js</title>
<path fill="none" stroke="#000000" stroke-width="2" stroke-opacity="0.200000" d="M221.17,-229.05C225.6,-215.59 235.69,-190.14 252.5,-175 252.64,-174.87 252.79,-174.74 252.93,-174.62"/>
<polygon fill="#000000" fill-opacity="0.200000" stroke="#000000" stroke-width="2" stroke-opacity="0.200000" points="253.9,-176.5 257.65,-171.36 251.52,-173.04 253.9,-176.5"/>
</g>
<!-- app/api/satellites/id/index.js -->
<g id="node10" class="node">
<title>app/api/satellites/id/index.js</title>
<g id="a_node10"><a xlink:href="app/api/satellites/id/index.js" xlink:title="index.js">
<path fill="#ffffcc" stroke="black" d="M308.58,-323.88C308.58,-323.88 266.42,-323.88 266.42,-323.88 263.46,-323.88 260.5,-320.92 260.5,-317.96 260.5,-317.96 260.5,-312.04 260.5,-312.04 260.5,-309.08 263.46,-306.12 266.42,-306.12 266.42,-306.12 308.58,-306.12 308.58,-306.12 311.54,-306.12 314.5,-309.08 314.5,-312.04 314.5,-312.04 314.5,-317.96 314.5,-317.96 314.5,-320.92 311.54,-323.88 308.58,-323.88"/>
<text text-anchor="start" x="271.75" y="-311.32" font-family="Helvetica,sans-Serif" font-size="9.00">index.js</text>
</a>
</g>
</g>
<!-- app/api/satellites/index.js&#45;&gt;app/api/satellites/id/index.js -->
<g id="edge11" class="edge">
<title>app/api/satellites/index.js&#45;&gt;app/api/satellites/id/index.js</title>
<path fill="none" stroke="#000000" stroke-width="2" stroke-opacity="0.200000" d="M221.08,-247.15C225.4,-260.89 235.34,-286.84 252.5,-302 252.64,-302.13 252.79,-302.25 252.93,-302.37"/>
<polygon fill="#000000" fill-opacity="0.200000" stroke="#000000" stroke-width="2" stroke-opacity="0.200000" points="251.46,-303.92 257.62,-305.5 253.79,-300.42 251.46,-303.92"/>
</g>
<!-- app/api/satellites/post.js -->
<g id="node13" class="node">
<title>app/api/satellites/post.js</title>
<g id="a_node13"><a xlink:href="app/api/satellites/post.js" xlink:title="post.js">
<path fill="#ffffcc" stroke="black" d="M308.58,-461.88C308.58,-461.88 266.42,-461.88 266.42,-461.88 263.46,-461.88 260.5,-458.92 260.5,-455.96 260.5,-455.96 260.5,-450.04 260.5,-450.04 260.5,-447.08 263.46,-444.12 266.42,-444.12 266.42,-444.12 308.58,-444.12 308.58,-444.12 311.54,-444.12 314.5,-447.08 314.5,-450.04 314.5,-450.04 314.5,-455.96 314.5,-455.96 314.5,-458.92 311.54,-461.88 308.58,-461.88"/>
<text text-anchor="start" x="274.38" y="-449.32" font-family="Helvetica,sans-Serif" font-size="9.00">post.js</text>
</a>
</g>
</g>
<!-- app/api/satellites/index.js&#45;&gt;app/api/satellites/post.js -->
<g id="edge12" class="edge">
<title>app/api/satellites/index.js&#45;&gt;app/api/satellites/post.js</title>
<path fill="none" stroke="#000000" stroke-width="2" stroke-opacity="0.200000" d="M218.89,-247C220.56,-282 228.21,-408.58 252.5,-439 252.76,-439.32 253.03,-439.64 253.3,-439.95"/>
<polygon fill="#000000" fill-opacity="0.200000" stroke="#000000" stroke-width="2" stroke-opacity="0.200000" points="251.75,-441.39 257.73,-443.54 254.39,-438.13 251.75,-441.39"/>
</g>
<!-- app/api/satellites/id/delete.js -->
<g id="node4" class="node">
<title>app/api/satellites/id/delete.js</title>
<g id="a_node4"><a xlink:href="app/api/satellites/id/delete.js" xlink:title="delete.js">
<path fill="#ffffcc" stroke="black" d="M378.58,-203.88C378.58,-203.88 336.42,-203.88 336.42,-203.88 333.46,-203.88 330.5,-200.92 330.5,-197.96 330.5,-197.96 330.5,-192.04 330.5,-192.04 330.5,-189.08 333.46,-186.12 336.42,-186.12 336.42,-186.12 378.58,-186.12 378.58,-186.12 381.54,-186.12 384.5,-189.08 384.5,-192.04 384.5,-192.04 384.5,-197.96 384.5,-197.96 384.5,-200.92 381.54,-203.88 378.58,-203.88"/>
<text text-anchor="start" x="340.25" y="-191.32" font-family="Helvetica,sans-Serif" font-size="9.00">delete.js</text>
</a>
</g>
</g>
<!-- app/api/satellites/id/details/detailId/get.js -->
<g id="node5" class="node">
<title>app/api/satellites/id/details/detailId/get.js</title>
<g id="a_node5"><a xlink:href="app/api/satellites/id/details/detailId/get.js" xlink:title="get.js">
<path fill="#ffffcc" stroke="black" d="M515.58,-245.88C515.58,-245.88 473.42,-245.88 473.42,-245.88 470.46,-245.88 467.5,-242.92 467.5,-239.96 467.5,-239.96 467.5,-234.04 467.5,-234.04 467.5,-231.08 470.46,-228.12 473.42,-228.12 473.42,-228.12 515.58,-228.12 515.58,-228.12 518.54,-228.12 521.5,-231.08 521.5,-234.04 521.5,-234.04 521.5,-239.96 521.5,-239.96 521.5,-242.92 518.54,-245.88 515.58,-245.88"/>
<text text-anchor="start" x="483.62" y="-233.32" font-family="Helvetica,sans-Serif" font-size="9.00">get.js</text>
</a>
</g>
</g>
<!-- app/api/satellites/id/details/detailId/index.js -->
<g id="node6" class="node">
<title>app/api/satellites/id/details/detailId/index.js</title>
<g id="a_node6"><a xlink:href="app/api/satellites/id/details/detailId/index.js" xlink:title="index.js">
<path fill="#ffffcc" stroke="black" d="M448.58,-245.88C448.58,-245.88 406.42,-245.88 406.42,-245.88 403.46,-245.88 400.5,-242.92 400.5,-239.96 400.5,-239.96 400.5,-234.04 400.5,-234.04 400.5,-231.08 403.46,-228.12 406.42,-228.12 406.42,-228.12 448.58,-228.12 448.58,-228.12 451.54,-228.12 454.5,-231.08 454.5,-234.04 454.5,-234.04 454.5,-239.96 454.5,-239.96 454.5,-242.92 451.54,-245.88 448.58,-245.88"/>
<text text-anchor="start" x="411.75" y="-233.32" font-family="Helvetica,sans-Serif" font-size="9.00">index.js</text>
</a>
</g>
</g>
<!-- app/api/satellites/id/details/detailId/index.js&#45;&gt;app/api/satellites/id/details/detailId/get.js -->
<g id="edge2" class="edge">
<title>app/api/satellites/id/details/detailId/index.js&#45;&gt;app/api/satellites/id/details/detailId/get.js</title>
<path fill="none" stroke="#000000" stroke-width="2" stroke-opacity="0.200000" d="M454.94,-237C456.08,-237 457.24,-237 458.4,-237"/>
<polygon fill="#000000" fill-opacity="0.200000" stroke="#000000" stroke-width="2" stroke-opacity="0.200000" points="458.27,-239.1 464.27,-237 458.27,-234.9 458.27,-239.1"/>
</g>
<!-- app/api/satellites/id/details/get.js -->
<g id="node7" class="node">
<title>app/api/satellites/id/details/get.js</title>
<g id="a_node7"><a xlink:href="app/api/satellites/id/details/get.js" xlink:title="get.js">
<path fill="#ffffcc" stroke="black" d="M448.58,-297.88C448.58,-297.88 406.42,-297.88 406.42,-297.88 403.46,-297.88 400.5,-294.92 400.5,-291.96 400.5,-291.96 400.5,-286.04 400.5,-286.04 400.5,-283.08 403.46,-280.12 406.42,-280.12 406.42,-280.12 448.58,-280.12 448.58,-280.12 451.54,-280.12 454.5,-283.08 454.5,-286.04 454.5,-286.04 454.5,-291.96 454.5,-291.96 454.5,-294.92 451.54,-297.88 448.58,-297.88"/>
<text text-anchor="start" x="416.62" y="-285.32" font-family="Helvetica,sans-Serif" font-size="9.00">get.js</text>
</a>
</g>
</g>
<!-- app/api/satellites/id/details/index.js -->
<g id="node8" class="node">
<title>app/api/satellites/id/details/index.js</title>
<g id="a_node8"><a xlink:href="app/api/satellites/id/details/index.js" xlink:title="index.js">
<path fill="#ffffcc" stroke="black" d="M378.58,-297.88C378.58,-297.88 336.42,-297.88 336.42,-297.88 333.46,-297.88 330.5,-294.92 330.5,-291.96 330.5,-291.96 330.5,-286.04 330.5,-286.04 330.5,-283.08 333.46,-280.12 336.42,-280.12 336.42,-280.12 378.58,-280.12 378.58,-280.12 381.54,-280.12 384.5,-283.08 384.5,-286.04 384.5,-286.04 384.5,-291.96 384.5,-291.96 384.5,-294.92 381.54,-297.88 378.58,-297.88"/>
<text text-anchor="start" x="341.75" y="-285.32" font-family="Helvetica,sans-Serif" font-size="9.00">index.js</text>
</a>
</g>
</g>
<!-- app/api/satellites/id/details/index.js&#45;&gt;app/api/satellites/id/details/detailId/index.js -->
<g id="edge3" class="edge">
<title>app/api/satellites/id/details/index.js&#45;&gt;app/api/satellites/id/details/detailId/index.js</title>
<path fill="none" stroke="#000000" stroke-width="2" stroke-opacity="0.200000" d="M380.5,-279.77C381.97,-278.64 383.33,-277.39 384.5,-276 392.31,-266.77 384.24,-258.83 392.5,-250 392.63,-249.86 392.77,-249.71 392.91,-249.57"/>
<polygon fill="#000000" fill-opacity="0.200000" stroke="#000000" stroke-width="2" stroke-opacity="0.200000" points="394.1,-251.31 397.65,-246.03 391.59,-247.94 394.1,-251.31"/>
</g>
<!-- app/api/satellites/id/details/index.js&#45;&gt;app/api/satellites/id/details/get.js -->
<g id="edge4" class="edge">
<title>app/api/satellites/id/details/index.js&#45;&gt;app/api/satellites/id/details/get.js</title>
<path fill="none" stroke="#000000" stroke-width="2" stroke-opacity="0.200000" d="M384.99,-289C387.2,-289 389.47,-289 391.74,-289"/>
<polygon fill="#000000" fill-opacity="0.200000" stroke="#000000" stroke-width="2" stroke-opacity="0.200000" points="391.4,-291.1 397.4,-289 391.4,-286.9 391.4,-291.1"/>
</g>
<!-- app/api/satellites/id/get.js -->
<g id="node9" class="node">
<title>app/api/satellites/id/get.js</title>
<g id="a_node9"><a xlink:href="app/api/satellites/id/get.js" xlink:title="get.js">
<path fill="#ffffcc" stroke="black" d="M378.58,-349.88C378.58,-349.88 336.42,-349.88 336.42,-349.88 333.46,-349.88 330.5,-346.92 330.5,-343.96 330.5,-343.96 330.5,-338.04 330.5,-338.04 330.5,-335.08 333.46,-332.12 336.42,-332.12 336.42,-332.12 378.58,-332.12 378.58,-332.12 381.54,-332.12 384.5,-335.08 384.5,-338.04 384.5,-338.04 384.5,-343.96 384.5,-343.96 384.5,-346.92 381.54,-349.88 378.58,-349.88"/>
<text text-anchor="start" x="346.62" y="-337.32" font-family="Helvetica,sans-Serif" font-size="9.00">get.js</text>
</a>
</g>
</g>
<!-- app/api/satellites/id/index.js&#45;&gt;app/api/satellites/id/delete.js -->
<g id="edge5" class="edge">
<title>app/api/satellites/id/index.js&#45;&gt;app/api/satellites/id/delete.js</title>
<path fill="none" stroke="#000000" stroke-width="2" stroke-opacity="0.200000" d="M311.3,-305.63C312.51,-304.54 313.59,-303.34 314.5,-302 326.15,-284.84 310.23,-225.72 322.5,-209 322.75,-208.65 323.02,-208.31 323.29,-207.98"/>
<polygon fill="#000000" fill-opacity="0.200000" stroke="#000000" stroke-width="2" stroke-opacity="0.200000" points="324.63,-209.6 327.89,-204.14 321.94,-206.38 324.63,-209.6"/>
</g>
<!-- app/api/satellites/id/index.js&#45;&gt;app/api/satellites/id/details/index.js -->
<g id="edge6" class="edge">
<title>app/api/satellites/id/index.js&#45;&gt;app/api/satellites/id/details/index.js</title>
<path fill="none" stroke="#000000" stroke-width="2" stroke-opacity="0.200000" d="M312.67,-305.76C316.37,-304.34 320.25,-302.86 324.1,-301.39"/>
<polygon fill="#000000" fill-opacity="0.200000" stroke="#000000" stroke-width="2" stroke-opacity="0.200000" points="324.73,-303.4 329.58,-299.29 323.23,-299.47 324.73,-303.4"/>
</g>
<!-- app/api/satellites/id/index.js&#45;&gt;app/api/satellites/id/get.js -->
<g id="edge7" class="edge">
<title>app/api/satellites/id/index.js&#45;&gt;app/api/satellites/id/get.js</title>
<path fill="none" stroke="#000000" stroke-width="2" stroke-opacity="0.200000" d="M312.67,-324.24C316.37,-325.66 320.25,-327.14 324.1,-328.61"/>
<polygon fill="#000000" fill-opacity="0.200000" stroke="#000000" stroke-width="2" stroke-opacity="0.200000" points="323.23,-330.53 329.58,-330.71 324.73,-326.6 323.23,-330.53"/>
</g>
<!-- app/api/satellites/id/patch.js -->
<g id="node11" class="node">
<title>app/api/satellites/id/patch.js</title>
<g id="a_node11"><a xlink:href="app/api/satellites/id/patch.js" xlink:title="patch.js">
<path fill="#ffffcc" stroke="black" d="M378.58,-379.88C378.58,-379.88 336.42,-379.88 336.42,-379.88 333.46,-379.88 330.5,-376.92 330.5,-373.96 330.5,-373.96 330.5,-368.04 330.5,-368.04 330.5,-365.08 333.46,-362.12 336.42,-362.12 336.42,-362.12 378.58,-362.12 378.58,-362.12 381.54,-362.12 384.5,-365.08 384.5,-368.04 384.5,-368.04 384.5,-373.96 384.5,-373.96 384.5,-376.92 381.54,-379.88 378.58,-379.88"/>
<text text-anchor="start" x="341.75" y="-367.32" font-family="Helvetica,sans-Serif" font-size="9.00">patch.js</text>
</a>
</g>
</g>
<!-- app/api/satellites/id/index.js&#45;&gt;app/api/satellites/id/patch.js -->
<g id="edge8" class="edge">
<title>app/api/satellites/id/index.js&#45;&gt;app/api/satellites/id/patch.js</title>
<path fill="none" stroke="#000000" stroke-width="2" stroke-opacity="0.200000" d="M310.53,-324.2C311.99,-325.34 313.34,-326.6 314.5,-328 322.77,-337.96 314,-346.24 322.5,-356 322.76,-356.3 323.04,-356.6 323.32,-356.89"/>
<polygon fill="#000000" fill-opacity="0.200000" stroke="#000000" stroke-width="2" stroke-opacity="0.200000" points="321.63,-358.24 327.63,-360.33 324.25,-354.95 321.63,-358.24"/>
</g>
<!-- app/api/satellites/id/put.js -->
<g id="node12" class="node">
<title>app/api/satellites/id/put.js</title>
<g id="a_node12"><a xlink:href="app/api/satellites/id/put.js" xlink:title="put.js">
<path fill="#ffffcc" stroke="black" d="M378.58,-409.88C378.58,-409.88 336.42,-409.88 336.42,-409.88 333.46,-409.88 330.5,-406.92 330.5,-403.96 330.5,-403.96 330.5,-398.04 330.5,-398.04 330.5,-395.08 333.46,-392.12 336.42,-392.12 336.42,-392.12 378.58,-392.12 378.58,-392.12 381.54,-392.12 384.5,-395.08 384.5,-398.04 384.5,-398.04 384.5,-403.96 384.5,-403.96 384.5,-406.92 381.54,-409.88 378.58,-409.88"/>
<text text-anchor="start" x="346.62" y="-397.32" font-family="Helvetica,sans-Serif" font-size="9.00">put.js</text>
</a>
</g>
</g>
<!-- app/api/satellites/id/index.js&#45;&gt;app/api/satellites/id/put.js -->
<g id="edge9" class="edge">
<title>app/api/satellites/id/index.js&#45;&gt;app/api/satellites/id/put.js</title>
<path fill="none" stroke="#000000" stroke-width="2" stroke-opacity="0.200000" d="M310.76,-324.03C312.17,-325.21 313.44,-326.52 314.5,-328 329.66,-349.15 306.83,-365.22 322.5,-386 322.89,-386.52 323.31,-387.03 323.74,-387.51"/>
<polygon fill="#000000" fill-opacity="0.200000" stroke="#000000" stroke-width="2" stroke-opacity="0.200000" points="322.01,-388.81 327.98,-390.99 324.68,-385.56 322.01,-388.81"/>
</g>
<!-- app/index.js -->
<g id="node14" class="node">
<title>app/index.js</title>
<g id="a_node14"><a xlink:href="app/index.js" xlink:title="index.js">
<path fill="#ffffcc" stroke="black" d="M64.08,-153.88C64.08,-153.88 21.92,-153.88 21.92,-153.88 18.96,-153.88 16,-150.92 16,-147.96 16,-147.96 16,-142.04 16,-142.04 16,-139.08 18.96,-136.12 21.92,-136.12 21.92,-136.12 64.08,-136.12 64.08,-136.12 67.04,-136.12 70,-139.08 70,-142.04 70,-142.04 70,-147.96 70,-147.96 70,-150.92 67.04,-153.88 64.08,-153.88"/>
<text text-anchor="start" x="27.25" y="-141.32" font-family="Helvetica,sans-Serif" font-size="9.00">index.js</text>
</a>
</g>
</g>
<!-- app/index.js&#45;&gt;app/api/index.js -->
<g id="edge13" class="edge">
<title>app/index.js&#45;&gt;app/api/index.js</title>
<path fill="none" stroke="#000000" stroke-width="2" stroke-opacity="0.200000" d="M70.16,-148.86C76.47,-149.8 83.32,-150.81 89.98,-151.79"/>
<polygon fill="#000000" fill-opacity="0.200000" stroke="#000000" stroke-width="2" stroke-opacity="0.200000" points="89.63,-153.86 95.87,-152.66 90.24,-149.71 89.63,-153.86"/>
</g>
<!-- node_modules/koa -->
<g id="node15" class="node">
<title>node_modules/koa</title>
<g id="a_node15"><a xlink:href="https://www.npmjs.com/package/koa" xlink:title="koa">
<polygon fill="#c40b0a" fill-opacity="0.101961" stroke="black" points="153.25,-93.88 101.22,-93.88 99.25,-91.9 99.25,-76.12 151.28,-76.12 153.25,-78.1 153.25,-93.88"/>
<polyline fill="none" stroke="black" points="151.28,-91.9 99.25,-91.9"/>
<polyline fill="none" stroke="black" points="151.28,-91.9 151.28,-76.12"/>
<polyline fill="none" stroke="black" points="151.28,-91.9 153.25,-93.88"/>
<text text-anchor="start" x="118.75" y="-81.33" font-family="Helvetica,sans-Serif" font-size="9.00" fill="#c40b0a">koa</text>
</a>
</g>
</g>
<!-- app/index.js&#45;&gt;node_modules/koa -->
<g id="edge14" class="edge">
<title>app/index.js&#45;&gt;node_modules/koa</title>
<path fill="none" stroke="#000000" stroke-opacity="0.200000" d="M56.7,-135.62C70.17,-125.67 91.59,-109.85 106.9,-98.55"/>
<polygon fill="#000000" fill-opacity="0.200000" stroke="#000000" stroke-opacity="0.200000" points="107.85,-100.46 111.43,-95.21 105.35,-97.08 107.85,-100.46"/>
</g>
<!-- node_modules/koa&#45;bodyparser -->
<g id="node16" class="node">
<title>node_modules/koa&#45;bodyparser</title>
<g id="a_node16"><a xlink:href="https://www.npmjs.com/package/koa-bodyparser" xlink:title="koa&#45;bodyparser">
<polygon fill="#c40b0a" fill-opacity="0.101961" stroke="black" points="166.5,-63.88 87.97,-63.88 86,-61.9 86,-46.12 164.53,-46.12 166.5,-48.1 166.5,-63.88"/>
<polyline fill="none" stroke="black" points="164.53,-61.9 86,-61.9"/>
<polyline fill="none" stroke="black" points="164.53,-61.9 164.53,-46.12"/>
<polyline fill="none" stroke="black" points="164.53,-61.9 166.5,-63.88"/>
<text text-anchor="start" x="94" y="-51.33" font-family="Helvetica,sans-Serif" font-size="9.00" fill="#c40b0a">koa&#45;bodyparser</text>
</a>
</g>
</g>
<!-- app/index.js&#45;&gt;node_modules/koa&#45;bodyparser -->
<g id="edge15" class="edge">
<title>app/index.js&#45;&gt;node_modules/koa&#45;bodyparser</title>
<path fill="none" stroke="#000000" stroke-opacity="0.200000" d="M45.67,-135.71C48.99,-119.93 57.91,-87.85 78,-70 78.72,-69.36 79.48,-68.74 80.25,-68.15"/>
<polygon fill="#000000" fill-opacity="0.200000" stroke="#000000" stroke-opacity="0.200000" points="81.37,-69.93 85.32,-64.94 79.13,-66.38 81.37,-69.93"/>
</g>
<!-- node_modules/koa&#45;router -->
<g id="node17" class="node">
<title>node_modules/koa&#45;router</title>
<g id="a_node17"><a xlink:href="https://www.npmjs.com/package/koa-router" xlink:title="koa&#45;router">
<polygon fill="#c40b0a" fill-opacity="0.101961" stroke="black" points="155.25,-33.88 99.22,-33.88 97.25,-31.9 97.25,-16.12 153.28,-16.12 155.25,-18.1 155.25,-33.88"/>
<polyline fill="none" stroke="black" points="153.28,-31.9 97.25,-31.9"/>
<polyline fill="none" stroke="black" points="153.28,-31.9 153.28,-16.12"/>
<polyline fill="none" stroke="black" points="153.28,-31.9 155.25,-33.88"/>
<text text-anchor="start" x="105.25" y="-21.32" font-family="Helvetica,sans-Serif" font-size="9.00" fill="#c40b0a">koa&#45;router</text>
</a>
</g>
</g>
<!-- app/index.js&#45;&gt;node_modules/koa&#45;router -->
<g id="edge16" class="edge">
<title>app/index.js&#45;&gt;node_modules/koa&#45;router</title>
<path fill="none" stroke="#000000" stroke-opacity="0.200000" d="M44.28,-135.7C45.41,-115.42 50.96,-66.88 78,-40 81.44,-36.58 85.67,-33.93 90.16,-31.89"/>
<polygon fill="#000000" fill-opacity="0.200000" stroke="#000000" stroke-opacity="0.200000" points="90.61,-33.97 95.45,-29.85 89.1,-30.05 90.61,-33.97"/>
</g>
</g>
</svg>
